<svg width="343" height="333" viewBox="0 0 343 333" fill="none" xmlns="http://www.w3.org/2000/svg">
<g style="mix-blend-mode:multiply" opacity="0.32">
<g style="mix-blend-mode:multiply" opacity="0.32">
<path d="M228.482 185.08L230.019 184.186L257.185 199.85L255.647 200.745L228.482 185.08Z" fill="#5199FF"/>
</g>
<g style="mix-blend-mode:multiply" opacity="0.32">
<path d="M85.8151 267.867L87.3525 266.972L114.518 282.63L112.981 283.524L85.8151 267.867Z" fill="#5199FF"/>
</g>
<g style="mix-blend-mode:multiply" opacity="0.32">
<path d="M0 218.398L1.54411 217.503L28.3689 232.967L26.8314 233.862L0 218.398Z" fill="#5199FF"/>
</g>
<g style="mix-blend-mode:multiply" opacity="0.32">
<g style="mix-blend-mode:multiply" opacity="0.32">
<path d="M142.667 135.611L144.211 134.724L171.035 150.188L169.498 151.082L142.667 135.611Z" fill="#5199FF"/>
</g>
<g style="mix-blend-mode:multiply" opacity="0.32">
<path d="M114.137 152.17L115.681 151.276L142.506 166.74L140.969 167.634L114.137 152.17Z" fill="#5199FF"/>
</g>
<g style="mix-blend-mode:multiply" opacity="0.32">
<path d="M199.765 168.528L201.303 167.634L228.468 183.292L226.931 184.186L199.765 168.528Z" fill="#5199FF"/>
</g>
<g style="mix-blend-mode:multiply" opacity="0.32">
<path d="M85.6079 168.722L87.152 167.828L113.977 183.298L112.439 184.193L85.6079 168.722Z" fill="#5199FF"/>
</g>
<g style="mix-blend-mode:multiply" opacity="0.32">
<path d="M171.236 185.08L172.773 184.192L199.939 199.85L198.401 200.744L171.236 185.08Z" fill="#5199FF"/>
</g>
<g style="mix-blend-mode:multiply" opacity="0.32">
<path d="M113.99 185.08L115.528 184.192L142.693 199.85L141.156 200.744L113.99 185.08Z" fill="#5199FF"/>
</g>
<g style="mix-blend-mode:multiply" opacity="0.32">
<path d="M57.0586 185.287L58.6161 184.386L85.4475 199.85L83.89 200.758L57.0586 185.287Z" fill="#5199FF"/>
</g>
<g style="mix-blend-mode:multiply" opacity="0.32">
<path d="M257.198 201.639L258.736 200.744L285.901 216.402L284.364 217.296L257.198 201.639Z" fill="#5199FF"/>
</g>
<g style="mix-blend-mode:multiply" opacity="0.32">
<path d="M199.952 201.639L201.49 200.744L228.655 216.402L227.118 217.296L199.952 201.639Z" fill="#5199FF"/>
</g>
<g style="mix-blend-mode:multiply" opacity="0.32">
<path d="M142.706 201.639L144.244 200.744L171.41 216.402L169.872 217.296L142.706 201.639Z" fill="#5199FF"/>
</g>
<g style="mix-blend-mode:multiply" opacity="0.32">
<path d="M85.4408 201.645L86.9983 200.744L114.164 216.402L112.606 217.31L85.4408 201.645Z" fill="#5199FF"/>
</g>
<g style="mix-blend-mode:multiply" opacity="0.32">
<path d="M28.5293 201.846L30.0868 200.938L56.9182 216.402L55.3607 217.31L28.5293 201.846Z" fill="#5199FF"/>
</g>
<g style="mix-blend-mode:multiply" opacity="0.32">
<path d="M228.669 218.191L230.206 217.297L257.372 232.954L255.834 233.848L228.669 218.191Z" fill="#5199FF"/>
</g>
<g style="mix-blend-mode:multiply" opacity="0.32">
<path d="M171.423 218.191L172.96 217.297L200.126 232.961L198.589 233.848L171.423 218.191Z" fill="#5199FF"/>
</g>
<g style="mix-blend-mode:multiply" opacity="0.32">
<path d="M114.157 218.204L115.715 217.297L142.88 232.961L141.323 233.862L114.157 218.204Z" fill="#5199FF"/>
</g>
<g style="mix-blend-mode:multiply" opacity="0.32">
<path d="M56.9115 218.204L58.469 217.297L85.6346 232.961L84.0771 233.862L56.9115 218.204Z" fill="#5199FF"/>
</g>
<g style="mix-blend-mode:multiply" opacity="0.32">
<path d="M200.139 234.743L201.677 233.848L228.842 249.513L227.305 250.407L200.139 234.743Z" fill="#5199FF"/>
</g>
<g style="mix-blend-mode:multiply" opacity="0.32">
<path d="M142.874 234.756L144.431 233.848L171.597 249.513L170.039 250.414L142.874 234.756Z" fill="#5199FF"/>
</g>
<g style="mix-blend-mode:multiply" opacity="0.32">
<path d="M85.628 234.756L87.1855 233.848L114.351 249.513L112.794 250.414L85.628 234.756Z" fill="#5199FF"/>
</g>
<g style="mix-blend-mode:multiply" opacity="0.32">
<path d="M199.244 135.611L172.586 151.082L171.049 151.976L144.057 167.634L142.519 168.528L115.528 184.193L113.99 185.08L86.9983 200.745L85.4408 201.646L58.469 217.297L56.9115 218.204L29.9197 233.862L28.3823 234.756L1.72462 250.22L0.173828 249.326L26.8315 233.862L28.3689 232.967L55.3607 217.31L56.9182 216.402L83.89 200.758L85.4475 199.85L112.439 184.193L113.977 183.298L140.969 167.634L142.506 166.74L169.498 151.082L171.035 150.188L197.693 134.724L199.244 135.611Z" fill="#5199FF"/>
</g>
<g style="mix-blend-mode:multiply" opacity="0.32">
<path d="M228.869 251.308L230.414 250.414L257.559 266.065L256.022 266.959L228.869 251.308Z" fill="#5199FF"/>
</g>
<g style="mix-blend-mode:multiply" opacity="0.32">
<path d="M171.59 251.308L173.148 250.407L200.313 266.065L198.756 266.972L171.59 251.308Z" fill="#5199FF"/>
</g>
<g style="mix-blend-mode:multiply" opacity="0.32">
<path d="M114.344 251.308L115.902 250.407L143.067 266.065L141.51 266.972L114.344 251.308Z" fill="#5199FF"/>
</g>
<g style="mix-blend-mode:multiply" opacity="0.32">
<path d="M227.96 152.17L201.303 167.634L199.765 168.528L172.773 184.193L171.236 185.08L144.244 200.745L142.707 201.639L115.715 217.296L114.157 218.204L87.1854 233.848L85.6279 234.756L58.6361 250.414L57.0986 251.308L30.441 266.779L28.8902 265.884L55.5478 250.414L57.0853 249.526L84.0771 233.862L85.6346 232.961L112.606 217.31L114.164 216.402L141.156 200.745L142.693 199.85L169.685 184.193L171.222 183.292L198.214 167.634L199.752 166.74L226.409 151.276L227.96 152.17Z" fill="#5199FF"/>
</g>
<g style="mix-blend-mode:multiply" opacity="0.32">
<path d="M57.0986 251.308L58.636 250.414L85.8017 266.078L84.2642 266.972L57.0986 251.308Z" fill="#5199FF"/>
</g>
<g style="mix-blend-mode:multiply" opacity="0.32">
<path d="M200.327 267.873L201.884 266.972L229.03 282.617L227.472 283.524L200.327 267.873Z" fill="#5199FF"/>
</g>
<g style="mix-blend-mode:multiply" opacity="0.32">
<path d="M143.061 267.867L144.618 266.959L171.784 282.617L170.227 283.524L143.061 267.867Z" fill="#5199FF"/>
</g>
<g style="mix-blend-mode:multiply" opacity="0.32">
<path d="M256.677 168.722L230.019 184.186L228.482 185.08L201.49 200.745L199.952 201.639L172.96 217.296L171.423 218.191L144.431 233.848L142.874 234.756L115.902 250.407L114.344 251.308L87.3525 266.972L85.8151 267.867L59.1575 283.331L57.6067 282.436L84.2643 266.972L85.8017 266.078L112.794 250.414L114.351 249.513L141.323 233.862L142.88 232.961L169.872 217.296L171.41 216.402L198.402 200.745L199.939 199.85L226.931 184.186L228.468 183.292L255.126 167.828L256.677 168.722Z" fill="#5199FF"/>
</g>
<g style="mix-blend-mode:multiply" opacity="0.32">
<path d="M285.393 185.274L258.736 200.744L257.198 201.639L230.206 217.296L228.669 218.191L201.677 233.848L200.14 234.743L173.148 250.407L171.59 251.308L144.618 266.959L143.061 267.866L116.069 283.524L114.532 284.418L87.874 299.882L86.3232 298.988L112.981 283.524L114.518 282.63L141.51 266.972L143.068 266.064L170.039 250.413L171.597 249.512L198.589 233.848L200.126 232.961L227.118 217.296L228.656 216.402L255.647 200.744L257.185 199.85L283.842 184.379L285.393 185.274Z" fill="#5199FF"/>
</g>
<g style="mix-blend-mode:multiply" opacity="0.32">
<path d="M114.532 284.419L116.069 283.524L143.235 299.182L141.697 300.076L114.532 284.419Z" fill="#5199FF"/>
</g>
<g style="mix-blend-mode:multiply" opacity="0.32">
<path d="M314.13 201.839L287.472 217.31L285.935 218.204L258.943 233.862L257.405 234.756L230.413 250.414L228.869 251.308L201.884 266.972L200.327 267.873L173.355 283.524L171.797 284.432L144.806 300.089L143.261 300.984L116.61 316.448L115.04 315.547L141.697 300.076L143.235 299.182L170.227 283.524L171.784 282.616L198.756 266.972L200.313 266.064L227.305 250.407L228.843 249.513L255.834 233.848L257.372 232.954L284.364 217.296L285.901 216.402L312.559 200.938L314.13 201.839Z" fill="#5199FF"/>
</g>
</g>
<g style="mix-blend-mode:multiply" opacity="0.32">
<path d="M285.934 218.204L287.472 217.31L314.617 232.954L313.08 233.848L285.934 218.204Z" fill="#5199FF"/>
</g>
<g style="mix-blend-mode:multiply" opacity="0.32">
<path d="M257.405 234.756L258.943 233.862L286.088 249.513L284.551 250.407L257.405 234.756Z" fill="#5199FF"/>
</g>
<g style="mix-blend-mode:multiply" opacity="0.32">
<path d="M171.797 284.432L173.355 283.524L200.5 299.175L198.943 300.076L171.797 284.432Z" fill="#5199FF"/>
</g>
<g style="mix-blend-mode:multiply" opacity="0.32">
<path d="M143.261 300.984L144.806 300.09L171.951 315.74L170.414 316.635L143.261 300.984Z" fill="#5199FF"/>
</g>
<g style="mix-blend-mode:multiply" opacity="0.32">
<path d="M342.846 218.398L316.188 233.862L314.651 234.756L287.659 250.414L286.122 251.308L259.13 266.972L257.592 267.867L230.601 283.524L229.043 284.432L202.071 300.076L200.514 300.984L173.522 316.641L171.985 317.536L145.327 333L143.756 332.099L170.414 316.635L171.951 315.74L198.943 300.076L200.501 299.175L227.472 283.524L229.03 282.617L256.022 266.959L257.559 266.065L284.551 250.407L286.088 249.513L313.08 233.848L314.618 232.954L341.275 217.49L342.846 218.398Z" fill="#5199FF"/>
</g>
<g style="mix-blend-mode:multiply" opacity="0.32">
<path d="M316.189 233.862L343 249.319L341.456 250.214L314.651 234.756L316.189 233.862Z" fill="#5199FF"/>
</g>
<g style="mix-blend-mode:multiply" opacity="0.32">
<path d="M171.049 151.976L172.586 151.082L199.752 166.74L198.214 167.634L171.049 151.976Z" fill="#5199FF"/>
</g>
<g style="mix-blend-mode:multiply" opacity="0.32">
<path d="M287.659 250.414L314.471 265.871L312.926 266.766L286.122 251.308L287.659 250.414Z" fill="#5199FF"/>
</g>
<g style="mix-blend-mode:multiply" opacity="0.32">
<path d="M142.519 168.528L144.057 167.634L171.222 183.292L169.685 184.193L142.519 168.528Z" fill="#5199FF"/>
</g>
<g style="mix-blend-mode:multiply" opacity="0.32">
<path d="M259.13 266.972L285.941 282.423L284.397 283.317L257.592 267.867L259.13 266.972Z" fill="#5199FF"/>
</g>
<g style="mix-blend-mode:multiply" opacity="0.32">
<path d="M230.6 283.524L257.412 298.982L255.848 299.883L229.043 284.432L230.6 283.524Z" fill="#5199FF"/>
</g>
<g style="mix-blend-mode:multiply" opacity="0.32">
<path d="M202.071 300.076L228.883 315.534L227.318 316.435L200.514 300.984L202.071 300.076Z" fill="#5199FF"/>
</g>
<g style="mix-blend-mode:multiply" opacity="0.32">
<path d="M173.522 316.642L200.333 332.099L198.789 332.993L171.985 317.536L173.522 316.642Z" fill="#5199FF"/>
</g>
<g style="mix-blend-mode:multiply" opacity="0.32">
<path d="M28.3822 234.756L29.9196 233.862L57.0853 249.526L55.5479 250.414L28.3822 234.756Z" fill="#5199FF"/>
</g>
<g style="mix-blend-mode:multiply" opacity="0.32">
<path d="M175.948 148.246C178.676 149.821 178.676 152.37 175.948 153.932C174.422 154.707 172.734 155.111 171.022 155.111C169.31 155.111 167.622 154.707 166.095 153.932C163.422 152.37 163.375 149.807 166.095 148.232C167.623 147.461 169.312 147.06 171.023 147.063C172.735 147.065 174.423 147.47 175.948 148.246V148.246Z" fill="#5199FF"/>
</g>
<g style="mix-blend-mode:multiply" opacity="0.32">
<path d="M204.652 164.771C207.379 166.346 207.379 168.895 204.685 170.457C203.159 171.233 201.471 171.638 199.759 171.638C198.046 171.638 196.358 171.233 194.832 170.457C192.125 168.895 192.112 166.332 194.832 164.757C196.356 163.992 198.038 163.594 199.743 163.596C201.449 163.598 203.13 164.001 204.652 164.771V164.771Z" fill="#5199FF"/>
</g>
<g style="mix-blend-mode:multiply" opacity="0.32">
<path d="M233.388 181.336C236.095 182.898 236.109 185.461 233.421 187.022C231.895 187.796 230.207 188.199 228.495 188.199C226.783 188.199 225.095 187.796 223.569 187.022C220.841 185.447 220.848 182.898 223.569 181.323C225.092 180.555 226.774 180.157 228.48 180.159C230.186 180.161 231.867 180.565 233.388 181.336Z" fill="#5199FF"/>
</g>
<g style="mix-blend-mode:multiply" opacity="0.32">
<path d="M262.105 197.895C264.832 199.463 264.825 202.019 262.138 203.581C260.612 204.356 258.924 204.76 257.212 204.76C255.499 204.76 253.811 204.356 252.285 203.581C249.558 202.013 249.564 199.456 252.285 197.888C253.807 197.118 255.489 196.717 257.196 196.719C258.902 196.72 260.584 197.123 262.105 197.895Z" fill="#5199FF"/>
</g>
<g style="mix-blend-mode:multiply" opacity="0.32">
<path d="M290.821 214.447C293.548 216.015 293.541 218.571 290.821 220.133C289.294 220.906 287.606 221.309 285.894 221.309C284.183 221.309 282.495 220.906 280.968 220.133C278.241 218.558 278.247 216.002 280.968 214.433C282.495 213.659 284.184 213.256 285.896 213.259C287.609 213.261 289.296 213.668 290.821 214.447V214.447Z" fill="#5199FF"/>
</g>
<g style="mix-blend-mode:multiply" opacity="0.32">
<path d="M319.537 231.005C322.264 232.58 322.258 235.13 319.571 236.692C318.044 237.466 316.356 237.87 314.644 237.87C312.932 237.87 311.244 237.466 309.718 236.692C306.99 235.117 306.997 232.567 309.718 230.992C311.241 230.225 312.923 229.826 314.629 229.828C316.335 229.831 318.016 230.234 319.537 231.005Z" fill="#5199FF"/>
</g>
<g style="mix-blend-mode:multiply" opacity="0.32">
<path d="M147.386 164.784C150.113 166.359 150.133 168.895 147.386 170.471C145.863 171.247 144.179 171.652 142.469 171.652C140.76 171.652 139.075 171.247 137.553 170.471C134.846 168.909 134.812 166.359 137.519 164.784C139.047 164.006 140.738 163.6 142.453 163.6C144.168 163.6 145.858 164.006 147.386 164.784V164.784Z" fill="#5199FF"/>
</g>
<g style="mix-blend-mode:multiply" opacity="0.32">
<path d="M176.102 181.336C178.829 182.911 178.849 185.454 176.102 187.023C174.58 187.799 172.895 188.204 171.186 188.204C169.476 188.204 167.792 187.799 166.269 187.023C163.596 185.461 163.529 182.911 166.269 181.336C167.793 180.565 169.477 180.162 171.186 180.162C172.894 180.162 174.579 180.565 176.102 181.336V181.336Z" fill="#5199FF"/>
</g>
<g style="mix-blend-mode:multiply" opacity="0.32">
<path d="M204.839 197.901C207.512 199.463 207.579 202.019 204.839 203.588C203.315 204.361 201.631 204.764 199.922 204.764C198.213 204.764 196.529 204.361 195.006 203.588C192.279 202.019 192.265 199.476 194.972 197.901C196.5 197.123 198.19 196.717 199.905 196.717C201.621 196.717 203.311 197.123 204.839 197.901Z" fill="#5199FF"/>
</g>
<g style="mix-blend-mode:multiply" opacity="0.32">
<path d="M235.593 217.307C235.6 215.088 232.492 213.281 228.653 213.27C224.813 213.259 221.696 215.05 221.69 217.269C221.684 219.488 224.791 221.295 228.63 221.306C232.47 221.317 235.587 219.526 235.593 217.307Z" fill="#5199FF"/>
</g>
<g style="mix-blend-mode:multiply" opacity="0.32">
<path d="M262.272 231.005C264.999 232.574 265.012 235.117 262.305 236.692C260.782 237.465 259.097 237.868 257.389 237.868C255.68 237.868 253.995 237.465 252.472 236.692C249.745 235.117 249.731 232.574 252.439 231.005C253.961 230.229 255.646 229.824 257.355 229.824C259.064 229.824 260.749 230.229 262.272 231.005V231.005Z" fill="#5199FF"/>
</g>
<g style="mix-blend-mode:multiply" opacity="0.32">
<path d="M290.988 247.564C293.715 249.139 293.729 251.682 290.988 253.25C289.466 254.027 287.781 254.431 286.072 254.431C284.362 254.431 282.677 254.027 281.155 253.25C278.428 251.682 278.415 249.139 281.122 247.564C282.648 246.782 284.339 246.374 286.055 246.374C287.77 246.374 289.461 246.782 290.988 247.564V247.564Z" fill="#5199FF"/>
</g>
<g style="mix-blend-mode:multiply" opacity="0.32">
<path d="M33.2686 231.005C35.9959 232.58 35.9892 235.13 33.302 236.692C31.7798 237.468 30.0949 237.873 28.3856 237.873C26.6763 237.873 24.9914 237.468 23.4692 236.692C20.762 235.13 20.7286 232.58 23.4358 231.005C24.9599 230.235 26.6441 229.834 28.3522 229.834C30.0603 229.834 31.7445 230.235 33.2686 231.005V231.005Z" fill="#5199FF"/>
</g>
<g style="mix-blend-mode:multiply" opacity="0.32">
<path d="M61.985 247.557C64.7123 249.126 64.7056 251.682 61.985 253.244C60.4619 254.017 58.7773 254.42 57.0686 254.42C55.3599 254.42 53.6754 254.017 52.1522 253.244C49.4784 251.682 49.4116 249.126 52.1522 247.557C53.6763 246.787 55.3605 246.386 57.0686 246.386C58.7767 246.386 60.4609 246.787 61.985 247.557V247.557Z" fill="#5199FF"/>
</g>
<g style="mix-blend-mode:multiply" opacity="0.32">
<path d="M90.7216 264.122C93.4288 265.684 93.4422 268.247 90.755 269.809C89.2314 270.58 87.547 270.983 85.8386 270.983C84.1302 270.983 82.4458 270.58 80.9222 269.809C78.1949 268.234 78.1749 265.691 80.9222 264.122C82.441 263.355 84.1195 262.955 85.8219 262.955C87.5243 262.955 89.2027 263.355 90.7216 264.122Z" fill="#5199FF"/>
</g>
<g style="mix-blend-mode:multiply" opacity="0.32">
<path d="M119.438 280.674C122.165 282.243 122.158 284.799 119.438 286.361C117.915 287.134 116.23 287.537 114.521 287.537C112.813 287.537 111.128 287.134 109.605 286.361C106.878 284.786 106.858 282.243 109.572 280.674C111.099 279.896 112.79 279.49 114.505 279.49C116.22 279.49 117.91 279.896 119.438 280.674V280.674Z" fill="#5199FF"/>
</g>
<g style="mix-blend-mode:multiply" opacity="0.32">
<path d="M148.154 297.226C150.882 298.802 150.875 301.351 148.188 302.913C146.666 303.689 144.981 304.094 143.271 304.094C141.562 304.094 139.877 303.689 138.355 302.913C135.628 301.344 135.608 298.802 138.355 297.226C139.874 296.46 141.553 296.061 143.255 296.061C144.957 296.061 146.635 296.46 148.154 297.226V297.226Z" fill="#5199FF"/>
</g>
<g style="mix-blend-mode:multiply" opacity="0.32">
<path d="M176.871 313.765C179.598 315.34 179.591 317.89 176.904 319.451C175.382 320.228 173.697 320.632 171.988 320.632C170.278 320.632 168.594 320.228 167.071 319.451C164.344 317.883 164.324 315.34 167.038 313.765C168.562 312.993 170.246 312.591 171.954 312.591C173.663 312.591 175.347 312.993 176.871 313.765V313.765Z" fill="#5199FF"/>
</g>
<g style="mix-blend-mode:multiply" opacity="0.32">
<path d="M61.7978 214.447C64.525 216.022 64.5384 218.558 61.7978 220.133C60.2756 220.909 58.5906 221.314 56.8814 221.314C55.1721 221.314 53.4872 220.909 51.9649 220.133C49.2911 218.571 49.2243 216.022 51.9649 214.447C53.4881 213.673 55.1727 213.27 56.8814 213.27C58.5901 213.27 60.2746 213.673 61.7978 214.447Z" fill="#5199FF"/>
</g>
<g style="mix-blend-mode:multiply" opacity="0.32">
<path d="M90.5144 231.005C93.2416 232.58 93.255 235.123 90.5478 236.692C89.0256 237.468 87.3406 237.873 85.6314 237.873C83.9221 237.873 82.2372 237.468 80.7149 236.692C78.0411 235.13 77.9743 232.58 80.7149 231.005C82.2343 230.239 83.9126 229.84 85.6146 229.84C87.3167 229.84 88.995 230.239 90.5144 231.005Z" fill="#5199FF"/>
</g>
<g style="mix-blend-mode:multiply" opacity="0.32">
<path d="M119.251 247.564C121.924 249.126 121.991 251.682 119.251 253.25C117.727 254.024 116.043 254.427 114.334 254.427C112.626 254.427 110.941 254.024 109.418 253.25C106.691 251.682 106.67 249.139 109.384 247.564C110.912 246.785 112.602 246.379 114.318 246.379C116.033 246.379 117.723 246.785 119.251 247.564V247.564Z" fill="#5199FF"/>
</g>
<g style="mix-blend-mode:multiply" opacity="0.32">
<path d="M150.014 266.968C150.02 264.749 146.913 262.942 143.073 262.931C139.234 262.92 136.116 264.71 136.11 266.929C136.104 269.148 139.211 270.956 143.051 270.967C146.89 270.977 150.008 269.187 150.014 266.968Z" fill="#5199FF"/>
</g>
<g style="mix-blend-mode:multiply" opacity="0.32">
<path d="M178.73 283.526C178.736 281.307 175.629 279.5 171.789 279.489C167.95 279.478 164.833 281.269 164.826 283.488C164.82 285.707 167.928 287.514 171.767 287.525C175.606 287.536 178.724 285.745 178.73 283.526Z" fill="#5199FF"/>
</g>
<g style="mix-blend-mode:multiply" opacity="0.32">
<path d="M205.4 297.226C208.127 298.801 208.141 301.344 205.434 302.913C203.911 303.689 202.227 304.094 200.517 304.094C198.808 304.094 197.123 303.689 195.601 302.913C192.874 301.344 192.854 298.801 195.601 297.226C197.119 296.456 198.798 296.054 200.501 296.054C202.203 296.054 203.882 296.456 205.4 297.226V297.226Z" fill="#5199FF"/>
</g>
<g style="mix-blend-mode:multiply" opacity="0.32">
<path d="M92.3732 200.749C92.3794 198.53 89.272 196.722 85.4327 196.712C81.5933 196.701 78.4758 198.491 78.4696 200.71C78.4634 202.929 81.5708 204.737 85.4102 204.747C89.2496 204.758 92.367 202.968 92.3732 200.749Z" fill="#5199FF"/>
</g>
<g style="mix-blend-mode:multiply" opacity="0.32">
<path d="M119.044 214.447C121.771 216.022 121.784 218.558 119.044 220.133C117.521 220.909 115.836 221.314 114.127 221.314C112.418 221.314 110.733 220.909 109.211 220.133C106.504 218.571 106.47 216.022 109.177 214.447C110.705 213.668 112.395 213.262 114.11 213.262C115.826 213.262 117.516 213.668 119.044 214.447V214.447Z" fill="#5199FF"/>
</g>
<g style="mix-blend-mode:multiply" opacity="0.32">
<path d="M147.78 231.005C150.454 232.567 150.521 235.117 147.78 236.692C146.257 237.465 144.572 237.868 142.864 237.868C141.155 237.868 139.47 237.465 137.947 236.692C135.22 235.117 135.207 232.574 137.947 231.005C139.469 230.229 141.154 229.824 142.864 229.824C144.573 229.824 146.258 230.229 147.78 231.005V231.005Z" fill="#5199FF"/>
</g>
<g style="mix-blend-mode:multiply" opacity="0.32">
<path d="M176.496 247.564C179.224 249.139 179.237 251.682 176.53 253.25C175.008 254.027 173.323 254.431 171.613 254.431C169.904 254.431 168.219 254.027 166.697 253.25C163.97 251.682 163.956 249.139 166.697 247.564C168.216 246.796 169.894 246.396 171.597 246.396C173.299 246.396 174.978 246.796 176.496 247.564V247.564Z" fill="#5199FF"/>
</g>
<g style="mix-blend-mode:multiply" opacity="0.32">
<path d="M207.252 266.968C207.258 264.749 204.151 262.942 200.312 262.931C196.472 262.92 193.355 264.711 193.349 266.93C193.342 269.149 196.45 270.956 200.289 270.967C204.128 270.977 207.246 269.187 207.252 266.968Z" fill="#5199FF"/>
</g>
<g style="mix-blend-mode:multiply" opacity="0.32">
<path d="M233.929 280.674C236.657 282.243 236.67 284.786 233.963 286.361C232.44 287.134 230.755 287.537 229.046 287.537C227.338 287.537 225.653 287.134 224.13 286.361C221.403 284.786 221.389 282.243 224.096 280.674C225.619 279.898 227.304 279.493 229.013 279.493C230.722 279.493 232.407 279.898 233.929 280.674V280.674Z" fill="#5199FF"/>
</g>
<g style="mix-blend-mode:multiply" opacity="0.32">
<path d="M118.856 181.336C121.584 182.911 121.597 185.454 118.856 187.022C117.334 187.799 115.649 188.203 113.94 188.203C112.231 188.203 110.546 187.799 109.024 187.022C106.316 185.461 106.283 182.911 108.99 181.336C110.518 180.559 112.209 180.154 113.923 180.154C115.638 180.154 117.328 180.559 118.856 181.336V181.336Z" fill="#5199FF"/>
</g>
<g style="mix-blend-mode:multiply" opacity="0.32">
<path d="M147.573 197.895C150.3 199.463 150.313 202.006 147.573 203.581C146.05 204.354 144.365 204.757 142.656 204.757C140.948 204.757 139.263 204.354 137.74 203.581C135.066 202.019 134.999 199.463 137.74 197.895C139.263 197.121 140.948 196.718 142.656 196.718C144.365 196.718 146.05 197.121 147.573 197.895V197.895Z" fill="#5199FF"/>
</g>
<g style="mix-blend-mode:multiply" opacity="0.32">
<path d="M176.309 214.46C178.983 216.022 179.05 218.571 176.309 220.146C174.786 220.918 173.101 221.32 171.393 221.32C169.684 221.32 168 220.918 166.476 220.146C163.749 218.571 163.736 216.028 166.476 214.46C167.999 213.684 169.684 213.279 171.393 213.279C173.102 213.279 174.787 213.684 176.309 214.46V214.46Z" fill="#5199FF"/>
</g>
<g style="mix-blend-mode:multiply" opacity="0.32">
<path d="M205.026 231.005C207.753 232.574 207.766 235.116 205.059 236.692C203.536 237.465 201.851 237.868 200.143 237.868C198.434 237.868 196.75 237.465 195.226 236.692C192.499 235.116 192.486 232.574 195.226 231.005C196.744 230.234 198.423 229.833 200.126 229.833C201.829 229.833 203.508 230.234 205.026 231.005V231.005Z" fill="#5199FF"/>
</g>
<g style="mix-blend-mode:multiply" opacity="0.32">
<path d="M233.742 247.564C236.47 249.139 236.483 251.682 233.776 253.25C232.254 254.027 230.569 254.431 228.859 254.431C227.15 254.431 225.465 254.027 223.943 253.25C221.216 251.682 221.202 249.139 223.91 247.564C225.433 246.791 227.117 246.388 228.826 246.388C230.535 246.388 232.219 246.791 233.742 247.564Z" fill="#5199FF"/>
</g>
<g style="mix-blend-mode:multiply" opacity="0.32">
<path d="M264.497 266.969C264.504 264.75 261.396 262.942 257.557 262.931C253.717 262.921 250.6 264.711 250.594 266.93C250.587 269.149 253.695 270.956 257.534 270.967C261.374 270.978 264.491 269.187 264.497 266.969Z" fill="#5199FF"/>
</g>
</g>
<g style="mix-blend-mode:multiply">
<g style="mix-blend-mode:multiply">
<path d="M276.884 197.194C287.184 203.127 287.238 212.751 277.004 218.691L189.538 269.448C179.311 275.382 162.673 275.382 152.379 269.448L64.3178 218.691C54.0237 212.751 53.9636 203.134 64.1908 197.201L151.684 146.437C161.911 140.503 178.555 140.503 188.849 146.437L276.884 197.194Z" fill="#D7E4F9"/>
</g>
</g>
<path d="M287.659 186.128L191.403 241.964C180.153 248.498 161.851 248.492 150.527 241.964L53.7029 186.135C48.0011 182.844 45.1535 178.533 45.1669 174.228V180.235C45.1669 184.54 48.0011 188.851 53.7029 192.135L150.547 247.971C161.878 254.498 180.173 254.505 191.43 247.971L287.686 192.135C293.274 188.891 296.068 184.646 296.082 180.395V174.388C296.048 178.64 293.254 182.884 287.659 186.128Z" fill="#779CE8"/>
<path d="M287.525 162.488C298.856 169.016 298.889 179.601 287.659 186.128L191.403 241.964C180.153 248.498 161.851 248.492 150.527 241.964L53.7029 186.135C42.3393 179.601 42.3393 169.022 53.5625 162.488L149.819 106.652C161.069 100.125 179.377 100.125 190.701 106.652L287.525 162.488Z" fill="white" stroke="#779CE8" stroke-width="0.75" stroke-miterlimit="10"/>
<path d="M192.747 42.5134L196.604 40.2775L196.096 43.341L192.239 45.5768L192.747 42.5134Z" fill="#4EA7EA" stroke="#779CE8" stroke-width="0.75" stroke-linecap="round" stroke-linejoin="round"/>
<path d="M173.188 12.7137L177.045 10.4778L179.959 11.539L176.102 13.7749L173.188 12.7137Z" fill="#55C2F9" stroke="#779CE8" stroke-width="0.75" stroke-linecap="round" stroke-linejoin="round"/>
<path d="M183.368 15.4299L187.225 13.1941C185.748 14.0484 184.832 15.8638 184.825 18.4533C184.825 23.6525 188.475 29.993 193.014 32.6093L189.164 34.8451C184.638 32.2288 180.962 25.8884 180.975 20.6892C180.982 18.0996 181.898 16.2842 183.368 15.4299Z" fill="#4EA7EA" stroke="#779CE8" stroke-width="0.75" stroke-linecap="round" stroke-linejoin="round"/>
<path d="M198.856 33.1828L195.006 35.452C193.509 36.313 191.443 36.1929 189.164 34.8781L193.014 32.6422C195.333 33.9237 197.339 34.0438 198.856 33.1828Z" fill="#4EA7EA" stroke="#779CE8" stroke-width="0.75" stroke-linecap="round" stroke-linejoin="round"/>
<path d="M204.692 43.3475L200.841 45.5834C201.603 45.1072 202.237 44.4518 202.686 43.6746L206.523 41.4587C206.077 42.2284 205.448 42.8769 204.692 43.3475V43.3475Z" fill="#4EA7EA" stroke="#779CE8" stroke-width="0.75" stroke-linecap="round" stroke-linejoin="round"/>
<path d="M177.566 5.25136L181.423 3.01551C182.179 2.58914 183.044 2.39417 183.91 2.45488L180.059 4.69073C179.191 4.62909 178.324 4.82407 177.566 5.25136V5.25136Z" fill="#55C2F9" stroke="#779CE8" stroke-width="0.75" stroke-linecap="round" stroke-linejoin="round"/>
<path d="M200.962 39.9105L204.819 37.6746L206.523 41.4389L202.666 43.668L200.962 39.9105Z" fill="#55C2F9" stroke="#779CE8" stroke-width="0.75" stroke-linecap="round" stroke-linejoin="round"/>
<path d="M180.053 4.69086L183.91 2.45502L186.349 5.78543L182.499 8.02127L180.053 4.69086Z" fill="#4EA7EA" stroke="#779CE8" stroke-width="0.75" stroke-linecap="round" stroke-linejoin="round"/>
<path d="M202.265 37.0672L206.122 34.8314C205.851 35.8455 205.41 36.8067 204.819 37.6746L200.968 39.9104C201.56 39.0433 201.998 38.0818 202.265 37.0672Z" fill="#55C2F9" stroke="#779CE8" stroke-width="0.75" stroke-linecap="round" stroke-linejoin="round"/>
<path d="M182.499 8.02121L186.356 5.78536C187.405 5.71108 188.458 5.81489 189.471 6.09237L185.621 8.32822C184.605 8.05125 183.55 7.94746 182.499 8.02121V8.02121Z" fill="#55C2F9" stroke="#779CE8" stroke-width="0.75" stroke-linecap="round" stroke-linejoin="round"/>
<path d="M200.989 24.4931L204.845 22.2573C205.391 23.6618 205.823 25.1082 206.136 26.5821L202.279 28.818C201.969 27.3432 201.538 25.8966 200.989 24.4931Z" fill="#55C2F9" stroke="#779CE8" stroke-width="0.75" stroke-linecap="round" stroke-linejoin="round"/>
<path d="M192.807 12.4595L196.67 10.2237C197.798 11.2324 198.842 12.3306 199.792 13.5074L195.942 15.7432C194.985 14.5676 193.937 13.4696 192.807 12.4595V12.4595Z" fill="#55C2F9" stroke="#779CE8" stroke-width="0.75" stroke-linecap="round" stroke-linejoin="round"/>
<path d="M205.206 31.0804L209.057 28.8445C209.785 31.9614 209.725 34.2239 209.057 35.8925L205.186 38.1216C205.848 36.4598 205.935 34.1972 205.206 31.0804Z" fill="#55C2F9" stroke="#779CE8" stroke-width="0.75" stroke-linecap="round" stroke-linejoin="round"/>
<path d="M202.279 28.8179L206.136 26.582L209.057 28.8446L205.2 31.0804L202.279 28.8179Z" fill="#4EA7EA" stroke="#779CE8" stroke-width="0.75" stroke-linecap="round" stroke-linejoin="round"/>
<path d="M186.129 5.26472L189.986 3.02887C191.109 3.27447 192.187 3.69329 193.181 4.27027C194.261 4.90474 195.252 5.67898 196.129 6.57285L192.272 8.8087C191.395 7.91276 190.401 7.13833 189.317 6.50611C188.327 5.9276 187.251 5.50866 186.129 5.26472V5.26472Z" fill="#55C2F9" stroke="#779CE8" stroke-width="0.75" stroke-linecap="round" stroke-linejoin="round"/>
<path d="M192.272 8.80878L196.122 6.57294L196.657 10.2304L192.8 12.4596L192.272 8.80878Z" fill="#4EA7EA" stroke="#779CE8" stroke-width="0.75" stroke-linecap="round" stroke-linejoin="round"/>
<path d="M202.68 22.6577L206.53 20.4219L204.839 22.2573L200.989 24.4931L202.68 22.6577Z" fill="#4EA7EA" stroke="#779CE8" stroke-width="0.75" stroke-linecap="round" stroke-linejoin="round"/>
<path d="M195.922 15.7369L199.778 13.5078L202.198 12.9338L198.348 15.1696L195.922 15.7369Z" fill="#4EA7EA" stroke="#779CE8" stroke-width="0.75" stroke-linecap="round" stroke-linejoin="round"/>
<path d="M205.186 38.1217L202.265 37.0605C201.998 38.075 201.56 39.0366 200.968 39.9037L202.686 43.6746C201.543 45.5233 200.059 46.2375 198.328 46.1574L195.888 42.8203C194.838 42.8976 193.782 42.7937 192.767 42.5133L192.259 45.5834C191.133 45.339 190.053 44.9201 189.057 44.342C187.979 43.7074 186.99 42.9332 186.116 42.0394L185.581 38.3886C184.456 37.3796 183.414 36.2815 182.466 35.105L180.033 35.6723C178.107 33.4876 176.637 30.942 175.708 28.1838L177.392 26.3484C176.848 24.944 176.418 23.4976 176.109 22.0236L173.188 19.7677C172.453 16.6509 172.519 14.3817 173.188 12.7198L176.102 13.781C176.37 12.7655 176.811 11.8037 177.406 10.9378L175.695 7.17355C176.838 5.32481 178.328 4.604 180.053 4.69744L182.493 8.03452C183.543 7.96077 184.598 8.06457 185.614 8.34153L186.122 5.27809C187.245 5.51719 188.324 5.93163 189.317 6.50614C190.399 7.13885 191.39 7.91326 192.265 8.80873L192.8 12.4595C193.926 13.4701 194.97 14.5681 195.922 15.7432L198.341 15.1692C200.272 17.3539 201.748 19.8992 202.686 22.6576L200.995 24.493C201.544 25.8966 201.976 27.3431 202.285 28.8179L205.213 31.0804C205.935 34.1973 205.848 36.4598 205.186 38.1217ZM189.144 34.838C193.676 37.4543 197.366 35.3519 197.379 30.1661C197.392 24.9802 193.729 18.6198 189.197 16.0035C184.665 13.3872 180.969 15.4896 180.955 20.6754C180.942 25.8612 184.638 32.2284 189.164 34.8447" fill="#E7EDF7"/>
<path d="M189.144 34.838C193.676 37.4543 197.366 35.3519 197.379 30.1661C197.392 24.9802 193.729 18.6198 189.197 16.0035C184.665 13.3872 180.969 15.4896 180.955 20.6754C180.942 25.8612 184.638 32.2284 189.164 34.8447M205.186 38.1217L202.265 37.0605C201.998 38.075 201.56 39.0366 200.968 39.9037L202.686 43.6746C201.543 45.5233 200.059 46.2375 198.328 46.1574L195.888 42.8203C194.838 42.8976 193.782 42.7937 192.767 42.5133L192.259 45.5834C191.133 45.339 190.053 44.9201 189.057 44.342C187.979 43.7074 186.99 42.9332 186.116 42.0394L185.581 38.3886C184.456 37.3796 183.414 36.2815 182.466 35.105L180.033 35.6723C178.107 33.4876 176.637 30.942 175.708 28.1838L177.392 26.3484C176.848 24.944 176.418 23.4976 176.109 22.0236L173.188 19.7677C172.453 16.6509 172.519 14.3817 173.188 12.7198L176.102 13.781C176.37 12.7655 176.811 11.8037 177.406 10.9378L175.695 7.17355C176.838 5.32481 178.328 4.604 180.053 4.69744L182.493 8.03452C183.543 7.96077 184.598 8.06457 185.614 8.34153L186.122 5.27809C187.245 5.51719 188.324 5.93163 189.317 6.50614C190.399 7.13885 191.39 7.91326 192.265 8.80873L192.8 12.4595C193.926 13.4701 194.97 14.5681 195.922 15.7432L198.341 15.1692C200.272 17.3539 201.748 19.8992 202.686 22.6576L200.995 24.493C201.544 25.8966 201.976 27.3431 202.285 28.8179L205.213 31.0804C205.935 34.1973 205.848 36.4598 205.186 38.1217Z" stroke="#779CE8" stroke-width="0.75" stroke-linecap="round" stroke-linejoin="round"/>
<path d="M198.348 15.1696L202.198 12.9338C204.126 15.1175 205.599 17.6633 206.53 20.4222L202.686 22.658C201.75 19.9001 200.276 17.3549 198.348 15.1696V15.1696Z" fill="#55C2F9" stroke="#779CE8" stroke-width="0.75" stroke-linecap="round" stroke-linejoin="round"/>
<path d="M221.83 25.4476L224.183 24.0794L223.876 25.9548L221.523 27.3164L221.83 25.4476Z" fill="#8F65E0" stroke="#779CE8" stroke-width="0.75" stroke-linecap="round" stroke-linejoin="round"/>
<path d="M209.899 7.2604L212.245 5.89886L214.03 6.54626L211.677 7.90779L209.899 7.2604Z" fill="#B06BF2" stroke="#779CE8" stroke-width="0.75" stroke-linecap="round" stroke-linejoin="round"/>
<path d="M221.998 19.434C220.537 18.4846 219.323 17.2035 218.454 15.6954C217.585 14.1873 217.086 12.4952 216.998 10.7576C216.998 9.18247 217.566 8.08791 218.462 7.5473L216.109 8.91551C215.213 9.43609 214.651 10.544 214.651 12.1258C214.741 13.8577 215.241 15.5438 216.109 17.046C216.976 18.5482 218.188 19.824 219.645 20.7688C221.035 21.5697 222.318 21.6432 223.214 21.1159L225.56 19.7811C224.651 20.2816 223.408 20.2082 221.998 19.434Z" fill="#8F65E0" stroke="#779CE8" stroke-width="0.75" stroke-linecap="round" stroke-linejoin="round"/>
<path d="M229.103 25.9614L226.75 27.2962C227.221 27.0081 227.612 26.6065 227.886 26.1282L230.239 24.7934C229.961 25.2688 229.571 25.6696 229.103 25.9614V25.9614Z" fill="#8F65E0" stroke="#779CE8" stroke-width="0.75" stroke-linecap="round" stroke-linejoin="round"/>
<path d="M212.572 2.70859L214.919 1.37375C215.382 1.11169 215.912 0.991027 216.443 1.02669L214.09 2.3949C213.564 2.34762 213.036 2.45677 212.572 2.70859V2.70859Z" fill="#B06BF2" stroke="#779CE8" stroke-width="0.75" stroke-linecap="round" stroke-linejoin="round"/>
<path d="M226.844 23.859L229.197 22.4974L230.24 24.7867L227.887 26.1549L226.844 23.859Z" fill="#B06BF2" stroke="#779CE8" stroke-width="0.75" stroke-linecap="round" stroke-linejoin="round"/>
<path d="M214.09 2.3682L216.436 1L217.927 3.03562L215.58 4.39715L214.09 2.3682Z" fill="#8F65E0" stroke="#779CE8" stroke-width="0.75" stroke-linecap="round" stroke-linejoin="round"/>
<path d="M227.639 22.1039L229.992 20.769C229.827 21.3881 229.558 21.9748 229.197 22.5043L226.851 23.8392C227.212 23.3107 227.479 22.7235 227.639 22.1039V22.1039Z" fill="#B06BF2" stroke="#779CE8" stroke-width="0.75" stroke-linecap="round" stroke-linejoin="round"/>
<path d="M215.58 4.39715L217.933 3.06232C218.572 3.01886 219.214 3.08202 219.832 3.24919L217.485 4.6174C216.868 4.43596 216.223 4.36147 215.58 4.39715V4.39715Z" fill="#B06BF2" stroke="#779CE8" stroke-width="0.75" stroke-linecap="round" stroke-linejoin="round"/>
<path d="M226.864 14.4484L229.217 13.1135C229.549 13.9815 229.813 14.8741 230.006 15.7832L227.653 17.118C227.461 16.2086 227.197 15.3159 226.864 14.4484V14.4484Z" fill="#B06BF2" stroke="#779CE8" stroke-width="0.75" stroke-linecap="round" stroke-linejoin="round"/>
<path d="M221.871 7.10681L224.217 5.77197C224.907 6.38488 225.544 7.05465 226.122 7.77422L223.776 9.10906C223.193 8.39421 222.556 7.72485 221.871 7.10681V7.10681Z" fill="#B06BF2" stroke="#779CE8" stroke-width="0.75" stroke-linecap="round" stroke-linejoin="round"/>
<path d="M229.424 18.4729L231.77 17.1381C232.218 19.0402 232.165 20.4218 231.77 21.4429L229.424 22.7711C229.825 21.7566 229.878 20.375 229.424 18.4729Z" fill="#B06BF2" stroke="#779CE8" stroke-width="0.75" stroke-linecap="round" stroke-linejoin="round"/>
<path d="M227.646 17.0914L229.999 15.7299L231.784 17.1048L229.431 18.473L227.646 17.0914Z" fill="#8F65E0" stroke="#779CE8" stroke-width="0.75" stroke-linecap="round" stroke-linejoin="round"/>
<path d="M217.793 2.74877L220.146 1.41394C220.818 1.53747 221.467 1.76253 222.071 2.08136C222.729 2.47152 223.333 2.94485 223.869 3.48961L221.516 4.82444C220.983 4.27818 220.378 3.80668 219.718 3.42287C219.115 3.10114 218.466 2.8738 217.793 2.74877V2.74877Z" fill="#B06BF2" stroke="#779CE8" stroke-width="0.75" stroke-linecap="round" stroke-linejoin="round"/>
<path d="M221.543 4.87764L223.896 3.51611L224.217 5.74529L221.864 7.11349L221.543 4.87764Z" fill="#8F65E0" stroke="#779CE8" stroke-width="0.75" stroke-linecap="round" stroke-linejoin="round"/>
<path d="M227.893 13.3337L230.24 11.9655L229.21 13.0868L226.864 14.4483L227.893 13.3337Z" fill="#8F65E0" stroke="#779CE8" stroke-width="0.75" stroke-linecap="round" stroke-linejoin="round"/>
<path d="M223.769 9.10912L226.122 7.74759L227.599 7.39386L225.246 8.76207L223.769 9.10912Z" fill="#8F65E0" stroke="#779CE8" stroke-width="0.75" stroke-linecap="round" stroke-linejoin="round"/>
<path d="M229.424 22.7711L227.639 22.1037C227.479 22.7234 227.212 23.3106 226.851 23.839L227.887 26.1349C227.636 26.6192 227.25 27.0202 226.775 27.2892C226.301 27.5582 225.758 27.6836 225.213 27.65L223.722 25.6143C223.081 25.6578 222.437 25.5946 221.817 25.4275L221.503 27.2962C220.817 27.1481 220.158 26.8936 219.551 26.5421C218.895 26.1532 218.292 25.6797 217.76 25.1338L217.432 22.9046C216.745 22.2883 216.108 21.6188 215.527 20.9024L214.05 21.2494C212.873 19.9188 211.976 18.3667 211.409 16.6843L212.432 15.563C212.1 14.6957 211.838 13.8029 211.65 12.8934L209.865 11.5185C209.424 9.61635 209.471 8.22813 209.865 7.21365L211.643 7.88107C211.807 7.26365 212.077 6.67895 212.439 6.15246L211.396 3.84987C211.647 3.36632 212.033 2.96616 212.508 2.6983C212.983 2.43043 213.526 2.30645 214.07 2.34151L215.561 4.34376C216.202 4.29941 216.846 4.36487 217.466 4.53731L217.793 2.74863C218.48 2.89823 219.138 3.155 219.745 3.50949C220.405 3.89331 221.01 4.3648 221.543 4.91106L221.871 7.14024C222.556 7.75828 223.193 8.42764 223.776 9.14249L225.253 8.79543C226.429 10.1287 227.327 11.683 227.893 13.3672L226.864 14.4818C227.198 15.3494 227.461 16.2421 227.653 17.1515L229.424 18.473C229.879 20.3751 229.825 21.7567 229.424 22.7711ZM219.645 20.7689C222.412 22.364 224.665 21.0826 224.671 17.9057C224.582 16.1747 224.082 14.4895 223.214 12.9884C222.346 11.4872 221.134 10.2127 219.678 9.2693C216.911 7.67417 214.658 8.95561 214.651 12.1325C214.742 13.8633 215.242 15.548 216.11 17.049C216.978 18.55 218.189 19.8247 219.645 20.7689" fill="white"/>
<path d="M219.645 20.7689C222.412 22.364 224.665 21.0826 224.671 17.9057C224.582 16.1747 224.082 14.4895 223.214 12.9884C222.346 11.4872 221.134 10.2127 219.678 9.2693C216.911 7.67417 214.658 8.95561 214.651 12.1325C214.742 13.8633 215.242 15.548 216.11 17.049C216.978 18.55 218.189 19.8247 219.645 20.7689M229.424 22.7711L227.639 22.1037C227.479 22.7234 227.212 23.3106 226.851 23.839L227.887 26.1349C227.636 26.6192 227.25 27.0202 226.775 27.2892C226.301 27.5582 225.758 27.6836 225.213 27.65L223.722 25.6143C223.081 25.6578 222.437 25.5946 221.817 25.4275L221.503 27.2962C220.817 27.1481 220.158 26.8936 219.551 26.5421C218.895 26.1532 218.292 25.6797 217.76 25.1338L217.432 22.9046C216.745 22.2883 216.108 21.6188 215.527 20.9024L214.05 21.2494C212.873 19.9188 211.976 18.3667 211.409 16.6843L212.432 15.563C212.1 14.6957 211.838 13.8029 211.65 12.8934L209.865 11.5185C209.424 9.61635 209.471 8.22813 209.865 7.21365L211.643 7.88107C211.807 7.26365 212.077 6.67895 212.439 6.15246L211.396 3.84987C211.647 3.36632 212.033 2.96616 212.508 2.6983C212.983 2.43043 213.526 2.30645 214.07 2.34151L215.561 4.34376C216.202 4.29941 216.846 4.36487 217.466 4.53731L217.793 2.74863C218.48 2.89823 219.138 3.155 219.745 3.50949C220.405 3.89331 221.01 4.3648 221.543 4.91106L221.871 7.14024C222.556 7.75828 223.193 8.42764 223.776 9.14249L225.253 8.79543C226.429 10.1287 227.327 11.683 227.893 13.3672L226.864 14.4818C227.198 15.3494 227.461 16.2421 227.653 17.1515L229.424 18.473C229.879 20.3751 229.825 21.7567 229.424 22.7711Z" stroke="#779CE8" stroke-width="0.75" stroke-linecap="round" stroke-linejoin="round"/>
<path d="M225.253 8.75543L227.599 7.42059C228.786 8.75206 229.695 10.3063 230.273 11.9924L227.92 13.3606C227.349 11.6624 226.442 10.0963 225.253 8.75543V8.75543Z" fill="#B06BF2" stroke="#779CE8" stroke-width="0.75" stroke-linecap="round" stroke-linejoin="round"/>
<path d="M256.323 50.242L257.873 49.3477C258.133 49.2274 258.42 49.1788 258.704 49.207C258.989 49.2352 259.26 49.3391 259.491 49.5079L257.947 50.4022C257.715 50.2335 257.442 50.1297 257.157 50.1015C256.871 50.0734 256.583 50.1219 256.323 50.242V50.242Z" fill="#779CE8"/>
<path d="M294.819 97.5219L293.274 98.4162C293.505 98.255 293.689 98.0352 293.806 97.7794C293.924 97.5236 293.971 97.2412 293.943 96.9613L295.487 96.0602C295.515 96.3411 295.468 96.6245 295.351 96.8812C295.233 97.138 295.05 97.3591 294.819 97.5219V97.5219Z" fill="#779CE8"/>
<path d="M293.996 73.8154L295.548 72.9144L295.481 96.0337L293.936 96.9347L293.996 73.8154Z" fill="#779CE8"/>
<path d="M257.94 50.4023L259.491 49.5079L293.268 68.9832L291.724 69.8775L257.94 50.4023Z" fill="#779CE8"/>
<path d="M291.723 69.8776L293.274 68.9833C293.937 69.413 294.488 69.9932 294.883 70.6764C295.278 71.3597 295.506 72.1265 295.547 72.9144L294.003 73.8154C293.962 73.0258 293.734 72.2572 293.338 71.5727C292.941 70.8882 292.388 70.3072 291.723 69.8776V69.8776Z" fill="#779CE8"/>
<path d="M291.723 69.8774C292.388 70.3071 292.941 70.888 293.338 71.5725C293.734 72.257 293.962 73.0256 294.003 73.8152L293.936 96.9345C293.936 98.3828 292.907 98.9368 291.643 98.2293L257.867 78.7541C257.203 78.3274 256.65 77.7489 256.255 77.0664C255.86 76.3838 255.633 75.6171 255.594 74.8297L255.661 51.7103C255.661 50.262 256.683 49.7081 257.947 50.3755L291.723 69.8774Z" fill="white" stroke="#779CE8" stroke-width="0.75" stroke-miterlimit="10"/>
<path d="M264.157 67.3212L264.13 76.2446L261.416 74.6761L261.443 65.7595L264.157 67.3212Z" fill="#F97D8C" stroke="#779CE8" stroke-width="0.75" stroke-linejoin="round"/>
<path d="M269.344 65.7528L269.31 79.228L266.596 77.6662L266.637 64.191L269.344 65.7528Z" fill="#FCCC54" stroke="#779CE8" stroke-width="0.75" stroke-miterlimit="10"/>
<path d="M274.391 71.3524L274.364 82.1379L271.65 80.5761L271.683 69.7906L274.391 71.3524Z" fill="#F97D8C" stroke="#779CE8" stroke-width="0.75" stroke-linejoin="round"/>
<path d="M279.471 67.2212L279.417 85.0546L276.703 83.4928L276.757 65.6528L279.471 67.2212Z" fill="#FCCC54" stroke="#779CE8" stroke-width="0.75" stroke-miterlimit="10"/>
<path d="M289.765 73.1545L289.718 90.9946L287.004 89.4261L287.051 71.5928L289.765 73.1545Z" fill="#FCCC54" stroke="#779CE8" stroke-width="0.75" stroke-miterlimit="10"/>
<path d="M284.638 72.9409L284.598 88.0445L281.884 86.4761L281.931 71.3724L284.638 72.9409Z" fill="#F97D8C" stroke="#779CE8" stroke-width="0.75" stroke-linejoin="round"/>
<path d="M269.364 59.0319V59.9529L260.982 55.1208V54.1998L269.364 59.0319Z" fill="#779CE8"/>
<path d="M290.105 92.8832V93.7308L261.409 77.1856V76.338L290.105 92.8832Z" fill="#779CE8"/>
<path d="M268.729 120.648L271.182 119.226L278.682 133.676L276.236 135.104L268.729 120.648Z" fill="#779CE8" stroke="#779CE8" stroke-width="0.75" stroke-miterlimit="10"/>
<path d="M279.618 133.242L277.165 134.67C279.21 133.482 280.507 131.006 280.62 127.502L283.074 126.081C282.967 129.558 281.663 132.061 279.618 133.242Z" fill="#EFB44B" stroke="#779CE8" stroke-width="0.75" stroke-linejoin="round"/>
<path d="M280.621 127.502C280.494 131.507 278.816 134.176 276.236 135.097L268.736 120.648L280.621 127.502Z" fill="#FCCC54" stroke="#779CE8" stroke-width="0.75" stroke-linejoin="round"/>
<path d="M268.729 120.648L271.182 119.226L283.074 126.081L280.621 127.502L268.729 120.648Z" fill="#EFB44B" stroke="#779CE8" stroke-width="0.75" stroke-linejoin="round"/>
<path d="M268.769 106.525L268.735 120.648L276.215 135.097C274.157 135.852 271.536 135.485 268.675 133.843C262.118 130.052 256.83 120.881 256.83 113.326C256.83 105.771 262.178 102.734 268.769 106.525Z" fill="white" stroke="#779CE8" stroke-width="0.75" stroke-linejoin="round"/>
<path d="M260.306 105.698L262.76 104.276C264.919 103.021 267.92 103.195 271.222 105.104L268.769 106.525C265.467 104.617 262.465 104.443 260.306 105.698Z" fill="#779CE8" stroke="#779CE8" stroke-width="0.75" stroke-miterlimit="10"/>
<path d="M268.769 106.525L271.223 105.104L271.183 119.226L268.729 120.648L268.769 106.525Z" fill="#779CE8" stroke="#779CE8" stroke-width="0.75" stroke-miterlimit="10"/>
<path d="M271.844 102.995C279.03 107.133 284.838 117.184 284.818 125.433C284.818 125.607 284.818 125.774 284.818 125.927L271.81 118.432L271.844 102.995Z" fill="#F97D8C" stroke="#779CE8" stroke-width="0.75" stroke-linejoin="round"/>
<path d="M271.844 102.995L274.297 101.566C281.483 105.711 287.292 115.762 287.271 124.012C287.271 124.179 287.271 124.352 287.271 124.506L284.818 125.927C284.818 125.774 284.818 125.607 284.818 125.433C284.838 117.184 279.03 107.133 271.844 102.995Z" fill="#E24B65" stroke="#779CE8" stroke-width="0.75" stroke-linejoin="round"/>
<path d="M118.108 38.7892L116.564 37.8882C116.304 37.7679 116.018 37.7194 115.733 37.7475C115.448 37.7757 115.177 37.8796 114.946 38.0484L116.49 38.9494C116.721 38.7806 116.993 38.6767 117.277 38.6485C117.562 38.6204 117.849 38.669 118.108 38.7892V38.7892Z" fill="#779CE8"/>
<path d="M81.8982 90.0534L83.4427 90.9478C83.2117 90.7865 83.0279 90.5667 82.9104 90.311C82.7929 90.0552 82.7458 89.7728 82.7741 89.4928L81.2296 88.5918C81.2015 88.8727 81.2486 89.156 81.3661 89.4128C81.4835 89.6696 81.6672 89.8907 81.8982 90.0534V90.0534Z" fill="#779CE8"/>
<path d="M82.7139 61.0609L81.1627 60.1666L81.2296 88.5919L82.7808 89.4929L82.7139 61.0609Z" fill="#779CE8"/>
<path d="M116.49 38.9694L114.939 38.0684L83.442 56.2288L84.9861 57.1231L116.49 38.9694Z" fill="#779CE8"/>
<path d="M84.9929 57.1232L83.4421 56.2288C82.7794 56.66 82.2281 57.2414 81.8331 57.9257C81.4381 58.61 81.2107 59.3779 81.1694 60.1666L82.7135 61.0609C82.7561 60.2717 82.9848 59.5037 83.3809 58.8195C83.777 58.1352 84.3293 57.554 84.9929 57.1232V57.1232Z" fill="#779CE8"/>
<path d="M84.993 57.1231C84.3294 57.5539 83.7771 58.1351 83.381 58.8194C82.9849 59.5037 82.7562 60.2717 82.7136 61.0609L82.7805 89.4928C82.7805 90.9411 83.8099 91.4951 85.0732 90.7876L116.57 72.6339C117.234 72.2054 117.786 71.6254 118.182 70.942C118.577 70.2585 118.803 69.491 118.843 68.7028L118.776 40.2708C118.776 38.8292 117.754 38.2686 116.49 38.9693L84.993 57.1231Z" fill="white" stroke="#779CE8" stroke-width="0.75" stroke-miterlimit="10"/>
<path d="M91.9513 56.8093L92.105 56.7292L92.0582 58.598L91.9646 58.6514C91.8148 58.7392 91.6697 58.8351 91.5302 58.9384L91.3096 59.1186C91.1977 59.2086 91.0906 59.3044 90.9887 59.4056C89.4179 60.9273 88.589 63.4101 89.1371 64.8717C89.1806 64.995 89.2366 65.1136 89.3042 65.2255C89.7922 66.033 90.7347 66.1799 91.7574 65.686L91.9914 65.5592H92.0515C92.2882 65.4141 92.5119 65.2489 92.72 65.0653L92.8136 64.9852L92.9606 64.8384C93.8235 63.9863 94.4519 62.9266 94.7855 61.7616L96.2895 61.5547C95.7809 63.3436 94.8185 64.9712 93.4954 66.28L93.3416 66.4268L93.2882 66.4802C92.9047 66.8337 92.4859 67.1468 92.0382 67.4146H91.9914L91.8978 67.468C90.0997 68.4624 88.4219 68.1754 87.7 66.5803C87.7 66.5069 87.6398 66.4335 87.6131 66.3601C87.4378 65.8604 87.3496 65.3344 87.3524 64.805C87.4811 62.2147 88.5896 59.7698 90.454 57.964C90.9037 57.5192 91.4066 57.1314 91.9513 56.8093V56.8093Z" fill="#779CE8" stroke="#779CE8" stroke-width="0.75" stroke-linejoin="round"/>
<path d="M91.9786 60.9941C92.5201 60.6871 92.9614 60.934 92.9614 61.5547C92.942 61.8918 92.8436 62.2196 92.674 62.5117C92.5045 62.8039 92.2685 63.0522 91.9852 63.2366C91.4437 63.5503 91.0091 63.2967 91.0024 62.6827C91.0208 62.3444 91.1187 62.0153 91.2883 61.7219C91.4579 61.4286 91.6944 61.1792 91.9786 60.9941Z" fill="#779CE8"/>
<path d="M96.3431 57.8705C96.7052 59.0676 96.6889 60.3471 96.2963 61.5346L94.7923 61.7415C95.0358 60.9636 95.0358 60.1301 94.7923 59.3522C94.3711 58.1975 93.2415 57.9506 92.0249 58.6113L92.0717 56.7426C93.9701 55.7281 95.6947 56.0952 96.3431 57.8705Z" fill="#F97D8C" stroke="#779CE8" stroke-width="0.75" stroke-miterlimit="10"/>
<path d="M92.0517 65.5401C92.2873 65.3931 92.5109 65.2277 92.7203 65.0453C92.5121 65.2292 92.2884 65.3947 92.0517 65.5401V65.5401Z" fill="#F97D8C"/>
<path d="M103.997 71.3858C104.651 70.975 105.214 70.4371 105.655 69.804C105.214 70.4371 104.651 70.975 103.997 71.3858V71.3858Z" fill="#779CE8"/>
<path d="M103.923 66.9542C104.465 66.6405 104.9 66.8941 104.906 67.5148C104.887 67.8519 104.788 68.1797 104.619 68.4718C104.449 68.764 104.213 69.0122 103.93 69.1967C103.388 69.5037 102.954 69.2568 102.947 68.6361C102.964 68.2985 103.062 67.9699 103.232 67.6774C103.402 67.385 103.639 67.137 103.923 66.9542Z" fill="#779CE8"/>
<path d="M104.164 62.5225C105.501 61.8551 106.751 61.8551 107.607 62.6494C109.151 64.1043 108.75 67.6617 106.718 70.5983C106.611 70.7451 106.51 70.892 106.403 71.0254C105.756 71.8968 104.951 72.6394 104.03 73.2146L103.943 73.268H103.877C102.653 73.9354 101.45 74.0755 100.534 73.5016C100.478 73.4676 100.425 73.4297 100.374 73.3881L100.307 73.3347L100.207 73.2479C99.8471 72.8953 99.5886 72.4528 99.4582 71.9665L101.002 70.5649C101.09 70.8804 101.258 71.1679 101.49 71.3992L101.664 71.5327H101.697C102.012 71.7125 102.37 71.8037 102.732 71.7967C103.095 71.7896 103.449 71.6845 103.756 71.4926L103.923 71.3992H103.984C104.637 70.9884 105.201 70.4505 105.641 69.8174L105.728 69.6973C106.463 68.6846 106.88 67.4765 106.925 66.2267C106.941 65.9149 106.896 65.603 106.792 65.3086C106.687 65.0143 106.526 64.7434 106.316 64.5115C105.999 64.2621 105.61 64.1199 105.207 64.1055C104.803 64.0911 104.405 64.2052 104.07 64.4314L104.164 62.5225Z" fill="#B06BF2" stroke="#779CE8" stroke-width="0.75" stroke-miterlimit="10"/>
<path d="M104.144 75.5571C104.338 75.4437 104.491 75.5571 104.491 75.7507C104.485 75.8695 104.452 75.9853 104.392 76.0885C104.333 76.1918 104.25 76.2796 104.15 76.3447L90.4339 84.2536C90.24 84.3604 90.0863 84.2536 90.0863 84.06C90.0932 83.9405 90.1275 83.8242 90.1867 83.72C90.2458 83.6159 90.3281 83.5267 90.4272 83.4594L104.144 75.5571Z" fill="#779CE8"/>
<path d="M92.0184 73.8151C92.5533 73.5081 92.9946 73.7551 92.9946 74.3758C92.977 74.7125 92.88 75.0403 92.7115 75.3326C92.5431 75.6248 92.3079 75.8732 92.0251 76.0577C91.4835 76.3713 91.0422 76.1177 91.0422 75.5037C91.0606 75.1655 91.1586 74.8363 91.3282 74.543C91.4978 74.2496 91.7343 74.0003 92.0184 73.8151Z" fill="#779CE8"/>
<path d="M92.5128 67.0876C92.3524 67.2013 92.1986 67.3016 92.0448 67.3952C92.1986 67.3016 92.3524 67.2013 92.5128 67.0876Z" fill="#F97D8C"/>
<path d="M94.7387 77.5595C94.033 78.5897 93.123 79.4643 92.0649 80.129C91.5648 80.4315 91.0111 80.6354 90.4339 80.7297C88.6826 80.9833 87.4393 79.7619 87.4326 77.4927C87.4744 76.0925 87.843 74.7213 88.5088 73.4882C89.2985 71.8772 90.5203 70.5164 92.0382 69.5571V71.4059C91.0459 72.0296 90.2474 72.9171 89.7321 73.9688C89.3108 74.7803 89.082 75.6778 89.0636 76.5917C89.0636 78.0734 89.8791 78.8676 91.0222 78.7141C91.3977 78.6491 91.758 78.5157 92.085 78.3203C92.787 77.8926 93.3906 77.3218 93.8564 76.6451L94.3845 77.1657L94.7387 77.5595Z" fill="#779CE8" stroke="#779CE8" stroke-width="0.75" stroke-linejoin="round"/>
<path d="M93.2951 66.4604C93.0477 66.686 92.7864 66.8959 92.5128 67.0889C92.7864 66.8959 93.0477 66.686 93.2951 66.4604V66.4604Z" fill="#F97D8C"/>
<path d="M106.43 71.0254C105.783 71.8968 104.978 72.6393 104.057 73.2145C104.978 72.6393 105.783 71.8968 106.43 71.0254V71.0254Z" fill="#779CE8"/>
<path d="M104.084 64.4178L103.91 64.5113C103.19 64.9534 102.575 65.5453 102.105 66.2466C101.082 67.7282 100.695 69.4568 101.036 70.5981L99.4914 71.9997C98.9634 70.2511 99.5583 67.6081 101.136 65.3255C101.851 64.246 102.793 63.335 103.897 62.6559L104.164 62.509L104.084 64.4178Z" fill="#779CE8" stroke="#779CE8" stroke-width="0.75" stroke-linejoin="round"/>
<path d="M103.883 54.1398C104.425 53.8261 104.866 54.0731 104.866 54.6938C104.848 55.032 104.75 55.3611 104.58 55.6545C104.411 55.9479 104.174 56.1972 103.89 56.3823C103.355 56.6894 102.914 56.4424 102.914 55.8217C102.931 55.485 103.028 55.1572 103.197 54.8649C103.365 54.5727 103.601 54.3242 103.883 54.1398V54.1398Z" fill="#779CE8"/>
<path d="M101.577 54.3534L101.617 54.2933L101.577 54.3534C101.139 55.1768 100.898 56.0908 100.875 57.023C100.875 58.498 101.691 59.2989 102.834 59.1321L102.272 61.1877H102.379H102.272C100.521 61.4413 99.2775 60.22 99.2708 57.9507C99.3041 56.5365 99.673 55.1504 100.347 53.9062L101.577 54.3867V54.3534Z" fill="#779CE8"/>
<path d="M101.577 54.3534L101.617 54.2933L101.577 54.3534ZM101.577 54.3534C101.139 55.1768 100.898 56.0908 100.875 57.023C100.875 58.498 101.691 59.2989 102.834 59.1321L102.272 61.1877H102.379H102.272C100.521 61.4413 99.2775 60.22 99.2708 57.9507C99.3041 56.5365 99.673 55.1504 100.347 53.9062L101.577 54.3867V54.3534Z" stroke="#779CE8" stroke-width="0.75" stroke-linejoin="round"/>
<path d="M103.877 49.9551C106.43 48.4801 108.502 49.6614 108.509 52.6247C108.426 54.2208 107.965 55.7744 107.164 57.1584C106.364 58.5424 105.246 59.7173 103.903 60.587C103.403 60.8896 102.849 61.0935 102.272 61.1877L102.834 59.1321C103.211 59.0697 103.574 58.9384 103.903 58.745C104.774 58.1731 105.5 57.4057 106.021 56.5041C106.542 55.6025 106.845 54.5917 106.905 53.5525C106.905 51.6436 105.568 50.8828 103.883 51.8305C102.893 52.4536 102.095 53.3383 101.577 54.3867L100.347 53.9129C101.128 52.2888 102.351 50.9172 103.877 49.9551V49.9551Z" fill="#FCCC54" stroke="#779CE8" stroke-width="0.75" stroke-miterlimit="10"/>
<path d="M113.783 45.637C114.499 45.2232 115.087 45.5569 115.087 46.3778C115.062 46.8276 114.93 47.2652 114.704 47.6548C114.477 48.0445 114.162 48.3753 113.783 48.6203C113.068 49.0341 112.479 48.7071 112.479 47.8795C112.502 47.4291 112.632 46.9905 112.859 46.6004C113.086 46.2103 113.403 45.88 113.783 45.637V45.637Z" fill="#779CE8"/>
<path d="M113.783 51.0028C114.499 50.589 115.087 50.9161 115.087 51.7437C115.064 52.1941 114.934 52.6327 114.708 53.0227C114.481 53.4128 114.164 53.7431 113.783 53.9862C113.068 54.4 112.479 54.0729 112.479 53.2453C112.505 52.7955 112.636 52.358 112.862 51.9683C113.089 51.5787 113.404 51.2479 113.783 51.0028Z" fill="#779CE8"/>
<path d="M113.783 56.3622C114.505 55.9484 115.12 56.2821 115.12 57.1097C115.09 57.5624 114.954 58.0016 114.721 58.3914C114.489 58.7812 114.167 59.1105 113.783 59.3522C113.061 59.766 112.48 59.4323 112.446 58.6114C112.475 58.1576 112.611 57.7173 112.844 57.3263C113.076 56.9353 113.398 56.6049 113.783 56.3622Z" fill="#779CE8"/>
<path d="M113.783 61.7283C114.498 61.3145 115.12 61.6482 115.12 62.4758C115.095 62.9249 114.965 63.3618 114.739 63.7514C114.514 64.1409 114.2 64.4721 113.823 64.7183C113.101 65.1321 112.486 64.7984 112.486 63.9708C112.508 63.521 112.638 63.0831 112.863 62.6931C113.089 62.3032 113.404 61.9724 113.783 61.7283Z" fill="#779CE8"/>
<path d="M92.005 69.5236C94.5585 68.0553 96.6307 69.2366 96.6373 72.1932C96.5591 74.14 95.8978 76.0185 94.7389 77.586L93.7964 76.6382C94.5638 75.6095 95.006 74.3755 95.0665 73.0943C95.0665 71.1854 93.7296 70.4246 92.0451 71.3723L92.005 69.5236Z" fill="#55C2F9" stroke="#779CE8" stroke-width="0.75" stroke-miterlimit="10"/>
<path d="M118.236 82.1053L116.938 81.3571C116.724 81.2595 116.487 81.2204 116.252 81.2439C116.017 81.2673 115.792 81.3525 115.601 81.4907L116.892 82.2389C117.084 82.0995 117.309 82.0136 117.545 81.9901C117.782 81.9666 118.02 82.0064 118.236 82.1053Z" fill="#779CE8"/>
<path d="M88.0078 116.944L89.2982 117.691C89.107 117.555 88.9551 117.371 88.8577 117.158C88.7603 116.945 88.7208 116.71 88.7433 116.477L87.4529 115.729C87.4304 115.962 87.4698 116.197 87.5673 116.411C87.6647 116.624 87.8166 116.808 88.0078 116.944Z" fill="#779CE8"/>
<path d="M88.6831 100.679L87.3927 99.9314L87.4462 115.729L88.7433 116.477L88.6831 100.679Z" fill="#779CE8"/>
<path d="M116.878 82.238L115.588 81.4838L89.2979 96.6409L90.588 97.395L116.878 82.238Z" fill="#779CE8"/>
<path d="M90.5879 97.3951L89.2978 96.6409C88.7432 97.0003 88.2819 97.4859 87.9519 98.0579C87.6219 98.6299 87.4325 99.272 87.3994 99.9313L88.6895 100.679C88.7242 100.021 88.9142 99.3802 89.2442 98.8096C89.5741 98.2389 90.0345 97.7542 90.5879 97.3951Z" fill="#779CE8"/>
<path d="M90.5878 97.3951C90.0345 97.7542 89.574 98.2389 89.2441 98.8095C88.9142 99.3802 88.7241 100.021 88.6895 100.679L88.7429 116.477C88.7429 117.685 89.6052 118.165 90.6547 117.558L116.945 102.401C117.499 102.044 117.96 101.561 118.29 100.991C118.62 100.421 118.81 99.7811 118.843 99.1237L118.79 83.3259C118.79 82.1179 117.934 81.6307 116.878 82.238L90.5878 97.3951Z" fill="white" stroke="#779CE8" stroke-width="0.75" stroke-miterlimit="10"/>
<path d="M116.216 98.0424L116.223 99.6308L94.438 112.192L94.4313 110.596L116.216 98.0424Z" fill="#779CE8"/>
<path d="M116.196 90.2737L116.203 91.8688L94.4181 104.43L94.4114 102.834L116.196 90.2737Z" fill="#779CE8"/>
<path d="M116.203 94.1581L116.209 95.7532L94.4246 108.314L94.418 106.719L116.203 94.1581Z" fill="#779CE8"/>
<path d="M107.861 91.2013L107.867 92.7964L94.4048 100.558L94.3981 98.9634L107.861 91.2013Z" fill="#779CE8"/>
<path d="M92.667 100.272C92.9077 100.131 93.0949 100.272 93.0949 100.512C93.0875 100.66 93.0455 100.804 92.9724 100.933C92.8992 101.062 92.7969 101.171 92.6737 101.254C92.433 101.387 92.2391 101.254 92.2391 101.006C92.2478 100.859 92.291 100.716 92.3653 100.588C92.4397 100.46 92.543 100.352 92.667 100.272V100.272Z" fill="#779CE8"/>
<path d="M92.68 104.136C92.9141 104.002 93.108 104.136 93.108 104.383C93.1003 104.532 93.0576 104.676 92.9832 104.805C92.9088 104.934 92.8049 105.044 92.68 105.125C92.446 105.258 92.2521 105.125 92.2521 104.877C92.2603 104.729 92.3033 104.585 92.3776 104.456C92.452 104.327 92.5556 104.217 92.68 104.136V104.136Z" fill="#779CE8"/>
<path d="M92.6867 108.027C92.9274 107.887 93.1213 107.994 93.1213 108.267C93.1126 108.416 93.0694 108.56 92.9951 108.689C92.9209 108.817 92.8175 108.927 92.6934 109.009C92.4527 109.143 92.2655 109.009 92.2655 108.762C92.2707 108.614 92.3118 108.47 92.3852 108.342C92.4586 108.214 92.5621 108.106 92.6867 108.027V108.027Z" fill="#779CE8"/>
<path d="M92.7003 111.905C92.9343 111.764 93.1282 111.905 93.1282 112.152C93.1201 112.3 93.0771 112.445 93.0027 112.574C92.9284 112.702 92.8248 112.812 92.7003 112.893C92.4663 113.027 92.2724 112.893 92.2724 112.646C92.2806 112.498 92.3236 112.353 92.3979 112.225C92.4722 112.096 92.5758 111.986 92.7003 111.905V111.905Z" fill="#779CE8"/>
<path d="M183.301 38.8559L189.739 35.1184C183.355 38.8226 179.391 46.6914 179.358 57.864C179.297 80.3559 195.193 107.854 214.785 119.153L208.368 122.884C188.769 111.584 172.867 84.0935 172.941 61.6015C172.967 50.429 176.931 42.5601 183.301 38.8559Z" fill="#779CE8"/>
<path d="M240.119 121.602L233.682 125.34C227.211 129.091 218.261 128.577 208.395 122.884L214.832 119.153C224.671 124.839 233.629 125.36 240.119 121.602Z" fill="#779CE8"/>
<path d="M189.752 35.1184C196.222 31.3675 205.173 31.8814 215.039 37.5678L208.602 41.3053C198.736 35.6189 189.778 35.0984 183.315 38.8559L189.752 35.1184Z" fill="#779CE8"/>
<path d="M183.087 38.462L189.525 34.7245C196.055 30.9402 205.086 31.4608 215.039 37.2006L208.602 40.9381C198.676 35.1984 189.611 34.6711 183.087 38.462Z" fill="#779CE8"/>
<path d="M250.48 98.8565C250.447 110.029 246.469 117.898 240.099 121.602L233.655 125.34C240.046 121.635 244.01 113.767 244.036 102.587C244.103 80.1021 228.208 52.6112 208.609 41.3052L215.046 37.5676C234.645 48.8737 250.54 76.3646 250.48 98.8565Z" fill="#779CE8"/>
<path d="M208.602 40.9381C228.381 52.3443 244.424 80.0821 244.364 102.774C244.304 125.466 228.154 134.663 208.368 123.257C188.582 111.851 172.546 84.1133 172.606 61.4144C172.666 38.7156 188.823 29.5319 208.602 40.9381ZM208.368 122.884C227.974 134.19 243.976 125.086 244.036 102.587C244.096 80.0888 228.207 52.6112 208.609 41.3052C189.01 29.9991 173.001 39.1094 172.94 61.6013C172.88 84.0933 188.776 111.584 208.368 122.884Z" fill="#779CE8"/>
<path d="M244.036 102.587C243.976 125.079 227.994 134.19 208.368 122.884C203.494 120.006 199.05 116.458 195.166 112.345C182.105 98.7765 172.88 78.7339 172.927 61.6213C172.994 39.1294 188.97 30.0258 208.602 41.3252C212.695 43.7277 216.479 46.6189 219.872 49.9349C233.95 63.4834 244.09 84.6205 244.036 102.587Z" fill="#D7E4F9" stroke="#779CE8" stroke-width="0.75" stroke-miterlimit="10"/>
<path d="M242.078 100.632C242.011 123.13 226.035 132.234 206.41 120.928C202.326 118.535 198.55 115.652 195.166 112.345C182.105 98.7764 172.88 78.7339 172.927 61.6213C172.994 39.1294 188.97 30.0258 208.602 41.3252C212.695 43.7277 216.479 46.6189 219.872 49.9349C232.927 63.4834 242.125 83.5059 242.078 100.632Z" fill="white" stroke="#779CE8" stroke-width="0.75" stroke-miterlimit="10"/>
<path d="M240.327 121.996L233.883 125.733C240.327 121.996 244.33 114.054 244.364 102.774C244.424 80.082 228.381 52.3442 208.602 40.938L215.039 37.2005C234.825 48.6067 250.868 76.3445 250.801 99.0367C250.768 110.316 246.804 118.258 240.327 121.996Z" fill="#779CE8"/>
<path d="M236.597 98.3028C236.597 104.416 235.073 109.282 232.466 112.672C227.512 119.14 218.569 120.221 208.401 114.354C192.9 105.417 180.327 83.653 180.374 65.8863C180.374 57.8773 182.98 52.0041 187.238 48.8005C192.419 44.8961 200.073 44.9294 208.582 49.835C224.077 58.8117 236.65 80.5228 236.597 98.3028Z" fill="#779CE8"/>
<path d="M236.597 98.3028C236.597 104.416 235.073 109.282 232.466 112.672C227.285 116.59 219.625 116.55 211.109 111.638C195.607 102.701 183.034 80.9366 183.094 63.1766C183.094 57.0497 184.618 52.1843 187.232 48.8005C192.412 44.8961 200.066 44.9294 208.575 49.835C224.077 58.8117 236.65 80.5228 236.597 98.3028Z" fill="white" stroke="#779CE8" stroke-width="0.75" stroke-miterlimit="10"/>
<path d="M209.779 52.805C209.929 52.9018 210.053 53.0327 210.143 53.187C210.232 53.3413 210.284 53.5146 210.293 53.6926V58.1577C210.293 58.4847 210.066 58.6182 209.779 58.4513C209.63 58.3548 209.506 58.2248 209.416 58.0718C209.327 57.9188 209.275 57.7471 209.264 57.5703V53.0986C209.264 52.805 209.498 52.6648 209.779 52.805Z" fill="#779CE8"/>
<path d="M197.726 49.5879C197.934 49.7168 198.092 49.912 198.174 50.1419L200.106 55.1275C200.247 55.4946 200.166 55.7949 199.919 55.7949C199.828 55.7975 199.737 55.7744 199.658 55.7282C199.456 55.5909 199.299 55.3954 199.21 55.1675L197.279 50.1819C197.138 49.8215 197.225 49.5145 197.466 49.4811C197.562 49.4868 197.654 49.5244 197.726 49.5879Z" fill="#779CE8"/>
<path d="M188.883 54.6203C188.98 54.6807 189.066 54.7575 189.137 54.8473L192.479 59.0253C192.595 59.1433 192.675 59.2922 192.71 59.4542C192.744 59.6162 192.731 59.7847 192.673 59.9397C192.617 60.0021 192.54 60.0411 192.457 60.0485C192.374 60.056 192.291 60.0313 192.225 59.9797C192.124 59.9214 192.036 59.8444 191.964 59.7528L188.622 55.5747C188.506 55.4564 188.427 55.3072 188.394 55.1451C188.36 54.9829 188.375 54.8146 188.435 54.6604C188.529 54.5269 188.702 54.5202 188.883 54.6203Z" fill="#779CE8"/>
<path d="M189.505 68.8228C189.655 68.9196 189.779 69.0506 189.869 69.2049C189.958 69.3592 190.01 69.5324 190.019 69.7105C190.019 70.0375 189.785 70.1643 189.505 70.0042L185.608 67.755C185.458 67.6597 185.334 67.5298 185.246 67.3765C185.157 67.2231 185.107 67.0508 185.1 66.874C185.1 66.5469 185.327 66.4134 185.614 66.5803L189.505 68.8228Z" fill="#779CE8"/>
<path d="M192.178 81.9644C192.385 82.0976 192.542 82.2945 192.626 82.525C192.767 82.8854 192.68 83.1924 192.432 83.1924L189.057 83.4861C188.966 83.489 188.877 83.4633 188.803 83.4127C188.595 83.2838 188.437 83.0886 188.355 82.8587C188.214 82.4983 188.301 82.1913 188.542 82.1913L191.924 81.8976C192.014 81.8952 192.102 81.9184 192.178 81.9644V81.9644Z" fill="#779CE8"/>
<path d="M199.551 94.7119C199.648 94.7723 199.734 94.8491 199.805 94.9388C199.921 95.0571 200.001 95.2063 200.034 95.3685C200.067 95.5306 200.053 95.6989 199.992 95.8532L198.007 98.6029C197.914 98.7364 197.74 98.7431 197.559 98.643C197.46 98.582 197.374 98.5027 197.305 98.4094C197.189 98.2911 197.11 98.1419 197.077 97.9797C197.044 97.8175 197.058 97.6493 197.118 97.495L199.077 94.7519C199.197 94.6185 199.344 94.6118 199.551 94.7119Z" fill="#779CE8"/>
<path d="M209.638 103.635C209.787 103.733 209.911 103.865 210.001 104.019C210.09 104.173 210.142 104.345 210.153 104.523V108.988C210.153 109.315 209.919 109.449 209.638 109.282C209.488 109.187 209.363 109.057 209.273 108.904C209.184 108.751 209.132 108.578 209.123 108.401V103.929C209.123 103.602 209.371 103.475 209.638 103.635Z" fill="#779CE8"/>
<path d="M219.745 106.358C219.949 106.488 220.106 106.68 220.193 106.906L222.125 111.898C222.272 112.265 222.185 112.565 221.937 112.599C221.845 112.602 221.754 112.576 221.677 112.525C221.473 112.394 221.318 112.199 221.236 111.971L219.297 106.986C219.157 106.619 219.237 106.318 219.491 106.285C219.581 106.282 219.67 106.308 219.745 106.358V106.358Z" fill="#779CE8"/>
<path d="M227.165 102.134C227.262 102.194 227.348 102.271 227.419 102.361L230.761 106.539C230.877 106.657 230.957 106.805 230.992 106.967C231.026 107.129 231.013 107.298 230.955 107.453C230.855 107.593 230.681 107.6 230.5 107.493C230.402 107.435 230.315 107.358 230.246 107.266L226.904 103.088C226.798 102.968 226.727 102.821 226.7 102.663C226.672 102.505 226.69 102.342 226.75 102.194C226.81 102.04 226.984 102.034 227.165 102.134Z" fill="#779CE8"/>
<path d="M233.796 94.3516C233.945 94.4488 234.069 94.5799 234.157 94.7343C234.245 94.8886 234.296 95.0617 234.304 95.2393C234.304 95.5663 234.077 95.6998 233.789 95.533L229.899 93.2904C229.749 93.1936 229.624 93.0627 229.535 92.9084C229.445 92.7541 229.394 92.5808 229.384 92.4028C229.384 92.0757 229.618 91.9423 229.899 92.1091L233.796 94.3516Z" fill="#779CE8"/>
<path d="M230.607 78.6741C230.811 78.8056 230.966 79.0002 231.048 79.228C231.195 79.5884 231.109 79.8955 230.861 79.8955L227.479 80.1891C227.389 80.1921 227.3 80.1664 227.225 80.1157C227.023 79.9852 226.868 79.7933 226.784 79.5684C226.637 79.2013 226.724 78.901 226.971 78.901L230.347 78.6073C230.438 78.6024 230.529 78.6257 230.607 78.6741V78.6741Z" fill="#779CE8"/>
<path d="M221.817 63.4835C221.916 63.5418 222.002 63.6189 222.071 63.7104C222.188 63.8285 222.268 63.9773 222.302 64.1393C222.337 64.3013 222.324 64.4698 222.265 64.6248L220.3 67.3679C220.206 67.5013 220.033 67.508 219.852 67.4079C219.755 67.3475 219.669 67.2707 219.598 67.181C219.482 67.0612 219.403 66.9109 219.37 66.7477C219.337 66.5845 219.351 66.4153 219.411 66.2599L221.403 63.4835C221.461 63.4346 221.534 63.4077 221.61 63.4077C221.686 63.4077 221.759 63.4346 221.817 63.4835V63.4835Z" fill="#779CE8"/>
<path d="M205.748 79.8621L207.893 78.614C207.659 78.7847 207.474 79.0139 207.357 79.2787C207.239 79.5435 207.194 79.8345 207.225 80.1224C207.268 80.9339 207.502 81.7239 207.909 82.4279C208.315 83.1319 208.883 83.73 209.565 84.1736L207.419 85.415C206.735 84.9745 206.167 84.3779 205.76 83.6747C205.353 82.9714 205.12 82.1816 205.079 81.3704C205.048 81.0826 205.094 80.7916 205.211 80.5268C205.328 80.262 205.513 80.0327 205.748 79.8621V79.8621Z" fill="#779CE8"/>
<path d="M211.222 84.3337L209.077 85.5818C208.809 85.7058 208.512 85.7557 208.218 85.7263C207.924 85.697 207.644 85.5895 207.406 85.4149L209.551 84.1735C209.791 84.3457 210.071 84.4512 210.365 84.4794C210.659 84.5075 210.955 84.4573 211.222 84.3337V84.3337Z" fill="#779CE8"/>
<path d="M204.023 76.9119L206.169 75.6639C207.038 75.1633 208.241 75.23 209.565 75.9976L207.419 77.239C206.102 76.4781 204.899 76.4047 204.023 76.9119Z" fill="#779CE8"/>
<path d="M212.94 87.2838L210.795 88.5318C211.65 88.0379 212.178 86.9768 212.185 85.4751C212.098 83.8249 211.621 82.2187 210.794 80.7875C209.967 79.3562 208.813 78.1404 207.426 77.2391L209.571 75.9977C210.958 76.8975 212.113 78.1121 212.94 79.5423C213.767 80.9725 214.243 82.5778 214.331 84.227C214.324 85.7354 213.796 86.7899 212.94 87.2838Z" fill="#779CE8"/>
<path d="M207.426 77.2391C208.817 78.1436 209.974 79.3647 210.801 80.8021C211.629 82.2396 212.103 83.8525 212.185 85.5084C212.185 88.5384 210.039 89.7531 207.399 88.2314C206.011 87.3324 204.855 86.1181 204.027 84.6879C203.198 83.2576 202.721 81.652 202.633 80.0022C202.646 76.9454 204.792 75.724 207.426 77.2391ZM207.426 85.4149C208.722 86.1624 209.778 85.5684 209.778 84.0801C209.736 83.2693 209.502 82.4801 209.095 81.7771C208.689 81.0741 208.121 80.4773 207.439 80.0356C206.142 79.2814 205.086 79.8821 205.086 81.3704C205.127 82.1815 205.36 82.9713 205.767 83.6746C206.174 84.3779 206.742 84.9744 207.426 85.4149" fill="white"/>
<path d="M207.426 85.4149C208.722 86.1624 209.778 85.5684 209.778 84.0801C209.736 83.2693 209.502 82.4801 209.095 81.7771C208.689 81.0741 208.121 80.4773 207.439 80.0356C206.142 79.2814 205.086 79.8821 205.086 81.3704C205.127 82.1815 205.36 82.9713 205.767 83.6746C206.174 84.3779 206.742 84.9744 207.426 85.4149M207.426 77.2391C208.817 78.1436 209.974 79.3647 210.801 80.8021C211.629 82.2396 212.103 83.8525 212.185 85.5084C212.185 88.5384 210.039 89.7531 207.399 88.2314C206.011 87.3324 204.855 86.1181 204.027 84.6879C203.198 83.2576 202.721 81.652 202.633 80.0022C202.646 76.9454 204.792 75.724 207.426 77.2391Z" stroke="#779CE8" stroke-width="0.75" stroke-miterlimit="10"/>
<g opacity="0.52">
<path opacity="0.52" d="M156.176 169.276C163.134 173.28 164.144 183.545 157.947 194.344C150.701 206.978 136.343 215.588 125.862 213.559C124.439 213.296 123.07 212.797 121.811 212.084C114.852 208.08 113.843 197.821 120.04 187.016C127.286 174.375 141.644 165.772 152.125 167.801C153.548 168.065 154.917 168.564 156.176 169.276Z" fill="#D7E4F9"/>
<path opacity="0.52" d="M165.501 184.38C170.527 187.276 171.283 194.618 166.837 202.333C161.65 211.383 151.309 217.53 143.736 216.068C142.696 215.874 141.695 215.509 140.775 214.987C135.748 212.091 134.993 204.749 139.438 197.034C144.632 187.984 154.973 181.837 162.539 183.298C163.579 183.496 164.579 183.861 165.501 184.38V184.38Z" fill="#D7E4F9"/>
</g>
<path d="M155.173 103.962L159.464 101.473C159.379 101.524 159.296 101.58 159.217 101.64L154.926 104.136C155.002 104.07 155.085 104.012 155.173 103.962V103.962Z" fill="white" stroke="#779CE8" stroke-width="0.75" stroke-miterlimit="10"/>
<path d="M156.403 106.071L160.694 103.582C160.479 103.71 160.314 103.908 160.227 104.143C160.204 104.19 160.183 104.239 160.166 104.289C159.825 105.391 160.46 107.126 161.59 108.167C161.78 108.34 161.986 108.494 162.205 108.628C162.424 108.757 162.664 108.847 162.914 108.895C163.19 108.948 163.476 108.903 163.722 108.768L159.431 111.264C159.181 111.397 158.893 111.44 158.616 111.384C158.378 111.336 158.152 111.246 157.947 111.117C157.723 110.992 157.516 110.837 157.332 110.657C156.202 109.622 155.567 107.887 155.908 106.779C155.926 106.731 155.946 106.684 155.969 106.639C156.049 106.408 156.201 106.209 156.403 106.071V106.071Z" fill="#779CE8" stroke="#779CE8" stroke-width="0.75" stroke-linejoin="round"/>
<path d="M162.132 103.689L157.84 106.198C157.705 106.123 157.561 106.062 157.412 106.018L161.704 103.529C161.852 103.566 161.995 103.62 162.132 103.689V103.689Z" fill="white" stroke="#779CE8" stroke-width="0.75" stroke-miterlimit="10"/>
<path d="M162.132 103.689L157.847 106.198L162.132 103.689Z" fill="white" stroke="#779CE8" stroke-width="0.75" stroke-miterlimit="10"/>
<path d="M157.847 106.198L162.145 103.702L162.205 103.742L157.9 106.198H157.847Z" fill="white" stroke="#779CE8" stroke-width="0.75" stroke-miterlimit="10"/>
<path d="M159.431 111.257C159.693 111.098 159.884 110.845 159.966 110.55C160.307 109.455 159.665 107.72 158.535 106.679C158.45 106.592 158.356 106.514 158.255 106.445C158.141 106.365 158.027 106.285 157.914 106.218L157.847 106.178C157.798 106.149 157.747 106.124 157.693 106.105V106.105L157.586 106.058L157.479 106.025H157.419H157.279C157.033 105.975 156.779 106.003 156.55 106.105C156.516 106.116 156.484 106.135 156.457 106.158C156.412 106.178 156.371 106.205 156.336 106.238C156.186 106.367 156.069 106.529 155.995 106.712C155.973 106.76 155.956 106.809 155.942 106.859C155.601 107.954 156.236 109.689 157.359 110.73C157.548 110.907 157.756 111.061 157.981 111.191C158.186 111.318 158.412 111.408 158.649 111.458C158.779 111.481 158.913 111.481 159.043 111.458H159.164H159.211C159.253 111.448 159.293 111.432 159.331 111.411C159.375 111.403 159.416 111.385 159.451 111.358V111.358" fill="white"/>
<path d="M159.431 111.257C159.693 111.098 159.884 110.845 159.966 110.55C160.307 109.455 159.665 107.72 158.535 106.679C158.45 106.592 158.356 106.514 158.255 106.445C158.141 106.365 158.027 106.285 157.914 106.218L157.847 106.178C157.798 106.149 157.747 106.124 157.693 106.105V106.105L157.586 106.058L157.479 106.025H157.419H157.279C157.033 105.975 156.779 106.003 156.55 106.105C156.516 106.116 156.484 106.135 156.457 106.158C156.412 106.178 156.371 106.205 156.336 106.238C156.186 106.367 156.069 106.529 155.995 106.712C155.973 106.76 155.956 106.809 155.942 106.859C155.601 107.954 156.236 109.689 157.359 110.73C157.548 110.907 157.756 111.061 157.981 111.191C158.186 111.318 158.412 111.408 158.649 111.458C158.779 111.481 158.913 111.481 159.043 111.458H159.164H159.211C159.253 111.448 159.293 111.432 159.331 111.411C159.375 111.403 159.416 111.385 159.451 111.358V111.358" stroke="#779CE8" stroke-width="0.75" stroke-miterlimit="10"/>
<path d="M161.704 109.943C161.622 109.455 161.495 108.977 161.323 108.514C161.01 107.683 160.583 106.899 160.053 106.185C159.848 105.901 159.625 105.631 159.384 105.377L159.338 105.331C159.244 105.237 159.157 105.15 159.064 105.07C158.952 104.961 158.834 104.858 158.709 104.763C158.474 104.576 158.226 104.404 157.967 104.249C157.772 104.137 157.569 104.039 157.359 103.956C156.997 103.804 156.609 103.723 156.216 103.716C156.125 103.709 156.033 103.709 155.942 103.716L155.755 103.749H155.701C155.653 103.755 155.605 103.769 155.561 103.789H155.474H155.434C155.367 103.818 155.302 103.852 155.24 103.889C155.142 103.941 155.05 104.004 154.966 104.076C154.626 104.372 154.378 104.759 154.251 105.191C153.636 107.193 154.792 110.336 156.838 112.212C157.172 112.529 157.542 112.807 157.941 113.039C159.057 113.707 160.12 113.707 160.848 113.213H160.888C160.967 113.149 161.041 113.08 161.109 113.006V113.006L161.283 112.799C161.283 112.799 161.283 112.799 161.283 112.746C161.347 112.657 161.403 112.564 161.45 112.465C161.497 112.359 161.537 112.252 161.584 112.125C161.587 112.105 161.587 112.085 161.584 112.065C161.584 111.985 161.63 111.911 161.65 111.831C161.795 111.212 161.813 110.569 161.704 109.943V109.943Z" fill="#FF6E80" stroke="#779CE8" stroke-width="0.75" stroke-linejoin="round"/>
<path d="M159.418 111.264C159.382 111.291 159.341 111.309 159.297 111.317C159.26 111.339 159.219 111.354 159.177 111.364H159.13H159.01C158.88 111.387 158.746 111.387 158.616 111.364C158.379 111.314 158.153 111.224 157.947 111.097C157.723 110.968 157.514 110.813 157.325 110.637C156.202 109.595 155.567 107.86 155.908 106.766C155.922 106.715 155.94 106.666 155.962 106.619C156.035 106.436 156.152 106.273 156.303 106.145C156.338 106.111 156.379 106.084 156.423 106.065C156.45 106.041 156.482 106.023 156.517 106.011C156.745 105.91 157 105.882 157.245 105.931H157.386H157.446L157.553 105.965L157.66 106.011C157.713 106.03 157.765 106.055 157.813 106.085V106.085L157.88 106.125C157.994 106.192 158.108 106.272 158.221 106.352C158.322 106.42 158.416 106.498 158.502 106.585C159.632 107.627 160.273 109.362 159.932 110.456C159.85 110.751 159.659 111.004 159.398 111.164L159.418 111.264Z" fill="#779CE8" stroke="#779CE8" stroke-width="0.75" stroke-linejoin="round"/>
<path d="M157.66 106.091C157.725 106.117 157.787 106.149 157.847 106.185C157.787 106.149 157.725 106.117 157.66 106.091Z" fill="white" stroke="#779CE8" stroke-width="0.75" stroke-miterlimit="10"/>
<path d="M157.626 106.072L157.412 105.998L157.626 106.072Z" fill="white" stroke="#779CE8" stroke-width="0.75" stroke-miterlimit="10"/>
<path d="M164.953 110.87L160.654 113.36C161.11 113.081 161.446 112.644 161.597 112.132L165.888 109.635C165.74 110.148 165.406 110.588 164.953 110.87V110.87Z" fill="white" stroke="#779CE8" stroke-width="0.75" stroke-miterlimit="10"/>
<path d="M161.61 112.071L165.902 109.582L165.888 109.642L161.597 112.138L161.61 112.071Z" fill="white" stroke="#779CE8" stroke-width="0.75" stroke-miterlimit="10"/>
<path d="M141.764 61.8952L146.056 59.399L161.617 101.446L157.326 103.942L141.764 61.8952Z" fill="#E24B65" stroke="#779CE8" stroke-width="0.75" stroke-linejoin="round"/>
<path d="M155.173 103.962L159.465 101.473C159.799 101.308 160.167 101.222 160.541 101.222C160.914 101.222 161.282 101.308 161.617 101.473C161.826 101.557 162.029 101.655 162.225 101.767C162.622 102.001 162.992 102.279 163.328 102.594C163.702 102.939 164.044 103.317 164.351 103.722L160.053 106.198C159.75 105.794 159.41 105.418 159.037 105.077C158.704 104.757 158.334 104.479 157.934 104.249C157.74 104.134 157.536 104.036 157.325 103.956C156.991 103.791 156.622 103.705 156.249 103.706C155.875 103.707 155.507 103.795 155.173 103.962Z" fill="#E24B65" stroke="#779CE8" stroke-width="0.75" stroke-linejoin="round"/>
<path d="M160.053 106.198L164.351 103.709C165.735 105.564 166.416 107.967 165.908 109.596L161.61 112.085C162.125 110.443 161.443 108.04 160.053 106.198Z" fill="white" stroke="#779CE8" stroke-width="0.75" stroke-miterlimit="10"/>
<path d="M134.879 50.0687L144.11 61.6951L141.764 61.8953L157.326 103.943C156.947 103.751 156.522 103.668 156.098 103.702C155.675 103.736 155.269 103.886 154.926 104.136L138.014 62.2223L135.548 62.4292L134.879 50.0687Z" fill="#F97D8C" stroke="#779CE8" stroke-width="0.75" stroke-linejoin="round"/>
<path d="M134.879 50.0685L139.17 47.579L148.402 59.1988L144.104 61.6882L134.879 50.0685Z" fill="#E24B65" stroke="#779CE8" stroke-width="0.75" stroke-linejoin="round"/>
<path d="M160.053 106.185L164.344 103.696L185.594 106.499L181.296 108.995L160.053 106.185Z" fill="#E24B65" stroke="#779CE8" stroke-width="0.75" stroke-linejoin="round"/>
<path d="M191.383 114.121L195.681 111.624L188.776 117.758L184.478 120.254L191.383 114.121Z" fill="#E24B65" stroke="#779CE8" stroke-width="0.75" stroke-linejoin="round"/>
<path d="M180.36 105.678L184.658 103.188L195.681 111.625L191.383 114.121L180.36 105.678Z" fill="#E24B65" stroke="#779CE8" stroke-width="0.75" stroke-linejoin="round"/>
<path d="M180.367 105.678L191.389 114.121L184.484 120.254L183.462 116.657L161.597 112.138C162.125 110.443 161.443 108.041 160.053 106.185L181.296 108.995L180.367 105.678Z" fill="#F97D8C" stroke="#779CE8" stroke-width="0.75" stroke-linejoin="round"/>
<path d="M147.071 84.841C147.071 84.7609 147.112 84.6808 147.132 84.5941C147.307 83.5714 147.387 82.5347 147.372 81.4972C147.279 80.3226 147.312 79.228 146.884 78.7542C146.456 78.2803 146.263 79.1012 146.216 80.0289C146.223 80.4959 146.059 80.9494 145.755 81.3037L143.863 76.7653C143.606 77.6619 143.405 78.5736 143.261 79.495C143.194 80.3159 142.947 82.0112 143.261 83.0056C143.46 83.6565 143.582 84.3286 143.622 85.0079L143.108 86.4161L146.37 87.0835L147.071 84.841Z" fill="white" stroke="#779CE8" stroke-width="0.75" stroke-miterlimit="10"/>
<path d="M143.134 86.089C143.209 85.8302 143.305 85.5779 143.422 85.3349C144.107 85.164 144.829 85.2179 145.481 85.4884C146.644 85.8688 146.951 86.623 146.951 86.8766C146.898 87.2854 146.822 87.691 146.724 88.0913L143.134 86.089Z" fill="white" stroke="#779CE8" stroke-width="0.75" stroke-miterlimit="10"/>
<path d="M138.963 93.6709C138.963 93.6709 142.098 86.4961 142.787 86.1157C143.475 85.7353 146.564 86.2825 146.945 88.0112C147.326 89.7398 142.626 104.47 141.764 105.678C141.136 106.565 133.008 103.248 133.008 103.248C133.008 103.248 138.516 94.5652 138.963 93.6709Z" fill="#EFB44B" stroke="#779CE8" stroke-width="0.75" stroke-miterlimit="10"/>
<path d="M167.372 115.542L166.884 114.06C166.737 113.593 166.67 111.838 167.132 111.291C167.593 110.743 168.368 113.546 168.368 113.546L172.606 114.407C172.332 115.068 171.935 115.67 171.436 116.183C170.828 116.63 170.501 116.85 170.501 116.85L170.26 117.564L167.259 116.209L167.372 115.542Z" fill="white" stroke="#779CE8" stroke-width="0.75" stroke-miterlimit="10"/>
<path d="M166.664 116.703C166.737 116.445 166.836 116.195 166.958 115.956C167.642 115.781 168.366 115.835 169.017 116.109C170.173 116.49 170.481 117.237 170.481 117.491C170.43 117.902 170.356 118.31 170.26 118.712L166.664 116.703Z" fill="white" stroke="#779CE8" stroke-width="0.75" stroke-miterlimit="10"/>
<path d="M146.403 187.022C146.403 187.022 147.072 189.212 148.061 189.832C149.05 190.453 152.105 190.56 153.729 188.177C155.354 185.794 155.387 183.785 157.118 181.743C158.85 179.701 159.431 176.971 158.582 175.703C157.733 174.435 155.113 173.968 151.724 178.052C149.538 180.779 147.747 183.798 146.403 187.022V187.022Z" fill="#779CE8" stroke="#779CE8" stroke-width="0.75" stroke-linejoin="round"/>
<path d="M132.667 199.683C134.635 200.206 136.65 200.533 138.683 200.658C141.002 200.658 142.459 202.974 141.183 204.382C139.792 205.91 137.66 206.511 133.288 206.971C128.917 207.432 127.379 208.253 125.427 207.739C123.476 207.225 125.427 200.297 125.427 200.297L132.667 199.683Z" fill="#779CE8" stroke="#779CE8" stroke-width="0.75" stroke-linejoin="round"/>
<path d="M129.866 137.741C129.866 137.741 128.121 145.289 131.383 150.101L138.676 165.165C138.676 165.165 143.816 184.954 145.975 187.416C145.975 187.416 150.093 187.623 151.938 184.34C153.783 181.056 153.275 180.469 151.938 176.437C148.342 165.705 148.649 160.526 148.241 157.75C147.834 154.973 144.023 137.727 144.023 137.727L129.866 137.741Z" fill="#D7E4F9" stroke="#779CE8" stroke-width="0.75" stroke-miterlimit="10"/>
<path d="M134.565 140.096C134.565 140.096 133.836 146.944 136.51 152.39L133.522 172.486C133.522 172.486 125.501 185.874 124.679 201.993C124.679 201.993 126.684 203.888 130.641 202.406C133.108 201.479 133.489 200.785 135.059 197.067C138.656 188.544 143.696 180.028 146.37 175.409C149.043 170.791 152.64 138.147 152.64 138.147L134.565 140.096Z" fill="white" stroke="#779CE8" stroke-width="0.75" stroke-miterlimit="10"/>
<path d="M130.106 132.514L132.132 134.897L135.467 131.994L132.346 129.137L130.106 132.514Z" fill="white" stroke="#779CE8" stroke-width="0.75" stroke-miterlimit="10"/>
<path d="M133.241 102.334C133.241 102.334 129.064 103.248 129.137 111.191C129.184 115.909 133.469 117.645 135.822 119.52C138.175 121.395 148.903 125.614 149.578 125.06C150.253 124.506 149.578 120.775 148.275 120.061C146.971 119.347 142.125 111.538 141.764 111.538C141.403 111.538 137.439 109.989 137.439 109.989L133.241 102.334Z" fill="#EFB44B" stroke="#779CE8" stroke-width="0.75" stroke-miterlimit="10"/>
<path d="M133.008 143.367C135.241 145.38 138.184 146.427 141.189 146.277C146.269 146.056 135.755 134.931 135.755 134.931L133.008 143.367Z" fill="white" stroke="#779CE8" stroke-width="0.75" stroke-miterlimit="10"/>
<path d="M154.919 118.879L154.251 122.45L154.057 123.438L153.455 126.661V126.781C153.116 128.639 152.893 130.516 152.787 132.401C152.74 133.109 152.713 133.823 152.707 134.53C152.707 135.478 152.727 136.432 152.767 137.393C152.92 140.397 153.074 143.614 153.041 143.961C152.881 145.28 152.363 146.531 151.543 147.578C150.948 148.299 150.215 148.895 149.386 149.329C148.557 149.764 147.65 150.028 146.717 150.108C146.517 150.108 146.316 150.154 146.102 150.168C140.4 150.568 135.741 147.064 135.741 147.064L135.788 145.235L135.935 139.99L135.989 137.901L135.32 140.056L134.752 141.812L133.983 144.181L133.622 145.316C132.131 144.092 130.739 142.753 129.458 141.311C129.165 140.972 128.938 140.58 128.79 140.156C128.422 138.681 128.79 135.945 130.494 130.472C131.871 126.014 131.938 121.522 131.396 116.196C131.283 114.981 131.129 113.74 130.962 112.439C130.133 106.232 131.704 103.188 133.281 102.381C133.422 102.311 133.57 102.257 133.723 102.22L133.896 102.187C135.648 101.96 139.331 103.615 139.331 103.615C139.431 103.649 140.481 103.936 141.764 104.35L142.346 104.543C144.097 105.137 146.076 105.925 146.664 106.605C147.005 106.999 147.7 107.693 148.502 108.474L149.712 109.635C151.256 111.104 152.773 112.499 152.773 112.499L152.907 112.899L154.919 118.879Z" fill="#FCCC54" stroke="#779CE8" stroke-width="0.75" stroke-miterlimit="10"/>
<path d="M154.204 93.8978C153.996 96.6003 153.628 99.288 153.101 101.947C152.432 104.71 149.204 104.049 149.204 104.049L148.428 108.668C148.428 108.668 143.148 108.508 141.563 105.07L142.232 101.787C142.232 101.787 138.549 97.0747 140.307 92.6364C142.065 88.198 146.042 87.297 148.89 87.6574C151.737 88.0178 154.511 89.9667 154.204 93.8978Z" fill="white" stroke="#779CE8" stroke-width="0.75" stroke-miterlimit="10"/>
<path d="M154.21 94.3649C154.21 94.3649 153.923 95.8199 152.907 96.0535C151.891 96.2871 151.918 96.2203 151.918 96.2203L151.717 98.1358L150.654 98.3761C150.654 98.3761 150.714 96.7009 149.986 96.4806C149.257 96.2604 148.736 98.5963 149.204 99.2904C149.3 99.478 149.45 99.6328 149.634 99.735C149.819 99.8372 150.029 99.8823 150.24 99.8644C150.24 99.8644 148.823 103.615 146.757 104.096C144.692 104.576 142.452 103.202 141.563 102.267C141.009 101.686 140.808 101.059 140.226 99.4506C139.886 98.4962 138.983 96.8944 138.963 95.5596C138.91 91.9756 140.42 91.7887 140.42 91.7887C140.42 91.7887 139.952 89.6796 142.499 87.5573C145.046 85.4349 149.057 85.555 151.189 87.0834C153.321 88.6118 153.756 87.5973 155.968 88.485C156.737 88.7987 157.653 90.7408 157.058 92.1291C156.831 92.6697 156.129 94.7787 154.21 94.3649Z" fill="#779CE8" stroke="#779CE8" stroke-width="0.75" stroke-linejoin="round"/>
<path d="M149.719 109.602C149.719 109.602 149.498 107.106 149.358 106.739C149.217 106.372 148.562 106.118 145.507 105.257C142.453 104.396 141.731 102.928 141.182 102.668C140.634 102.407 139.291 103.569 139.291 103.569C139.291 103.569 140.267 106.705 144.358 108C148.448 109.295 149.719 109.602 149.719 109.602Z" fill="white" stroke="#779CE8" stroke-width="0.75" stroke-miterlimit="10"/>
<path d="M136.47 136.132C136.43 136.124 136.395 136.1 136.373 136.067C136.35 136.033 136.342 135.992 136.35 135.952C137.429 130.222 138.099 124.423 138.355 118.599C138.596 110.283 140.273 106.959 140.36 106.826C140.369 106.808 140.382 106.792 140.398 106.779C140.413 106.765 140.431 106.756 140.45 106.749C140.469 106.743 140.49 106.741 140.51 106.742C140.53 106.744 140.55 106.75 140.567 106.759C140.603 106.779 140.629 106.811 140.641 106.849C140.654 106.888 140.651 106.929 140.634 106.966C140.634 106.966 138.91 110.376 138.676 118.612C138.417 124.452 137.747 130.266 136.67 136.012C136.668 136.034 136.66 136.056 136.648 136.075C136.636 136.094 136.619 136.11 136.6 136.121C136.581 136.133 136.559 136.14 136.536 136.142C136.514 136.144 136.491 136.14 136.47 136.132V136.132Z" fill="#EFB44B"/>
<path d="M154.558 122.617L154.304 125.88C154.257 126.401 154.23 126.928 154.21 127.449C153.943 127.215 153.682 126.988 153.422 126.748C153.082 128.606 152.859 130.483 152.753 132.368C150.809 130.303 149.429 127.776 148.742 125.026C148.298 123.338 148.042 121.605 147.98 119.86C147.98 119.653 147.98 119.467 147.98 119.306C147.98 118.799 147.98 118.505 147.98 118.505L154.224 122.417L154.558 122.617Z" fill="#779CE8" stroke="#779CE8" stroke-width="0.75" stroke-linejoin="round"/>
<path d="M170.394 118.505C170.013 116.777 166.918 116.23 166.236 116.61C165.688 116.91 163.562 121.522 162.76 123.384C161.202 121.462 156.476 115.656 154.444 113.894C153.972 113.476 153.443 113.125 152.874 112.852C150.688 111.805 148.288 112.265 147.686 115.622C147.481 116.857 147.587 118.123 147.994 119.306C147.994 119.306 147.994 119.306 147.994 119.306C148.081 119.56 148.174 119.807 148.288 120.067C148.651 120.907 149.099 121.708 149.625 122.457C150.738 124.025 152.025 125.462 153.462 126.741C153.722 126.982 153.983 127.209 154.251 127.442C158.188 130.853 159.652 132.962 162.272 133.663C163.11 133.922 164.015 133.86 164.811 133.49C165.607 133.12 166.236 132.468 166.577 131.66C167.452 130.432 170.775 120.214 170.394 118.505Z" fill="#FCCC54" stroke="#779CE8" stroke-width="0.75" stroke-miterlimit="10"/>
</svg>
